G04 #@! TF.GenerationSoftware,KiCad,Pcbnew,5.1.7-a382d34a8~87~ubuntu20.04.1*
G04 #@! TF.CreationDate,2020-12-28T23:51:54+01:00*
G04 #@! TF.ProjectId,blender_badges,626c656e-6465-4725-9f62-61646765732e,rev?*
G04 #@! TF.SameCoordinates,Original*
G04 #@! TF.FileFunction,Copper,L2,Bot*
G04 #@! TF.FilePolarity,Positive*
%FSLAX46Y46*%
G04 Gerber Fmt 4.6, Leading zero omitted, Abs format (unit mm)*
G04 Created by KiCad (PCBNEW 5.1.7-a382d34a8~87~ubuntu20.04.1) date 2020-12-28 23:51:54*
%MOMM*%
%LPD*%
G01*
G04 APERTURE LIST*
G04 #@! TA.AperFunction,ComponentPad*
%ADD10C,4.049867*%
G04 #@! TD*
G04 #@! TA.AperFunction,SMDPad,CuDef*
%ADD11R,1.100000X0.800000*%
G04 #@! TD*
G04 #@! TA.AperFunction,SMDPad,CuDef*
%ADD12R,1.700000X0.650000*%
G04 #@! TD*
G04 #@! TA.AperFunction,SMDPad,CuDef*
%ADD13R,3.960000X3.960000*%
G04 #@! TD*
G04 #@! TA.AperFunction,SMDPad,CuDef*
%ADD14R,2.640000X5.100000*%
G04 #@! TD*
G04 #@! TA.AperFunction,SMDPad,CuDef*
%ADD15C,1.524000*%
G04 #@! TD*
G04 #@! TA.AperFunction,SMDPad,CuDef*
%ADD16R,1.700000X1.000000*%
G04 #@! TD*
G04 #@! TA.AperFunction,SMDPad,CuDef*
%ADD17R,1.498600X0.698500*%
G04 #@! TD*
G04 #@! TA.AperFunction,SMDPad,CuDef*
%ADD18R,0.599440X0.998220*%
G04 #@! TD*
G04 #@! TA.AperFunction,SMDPad,CuDef*
%ADD19R,0.797560X0.998220*%
G04 #@! TD*
G04 #@! TA.AperFunction,ViaPad*
%ADD20C,0.800000*%
G04 #@! TD*
G04 #@! TA.AperFunction,Conductor*
%ADD21C,0.250000*%
G04 #@! TD*
G04 APERTURE END LIST*
D10*
X134166366Y-31501672D03*
D11*
X118500000Y-62750000D03*
X120830000Y-62750000D03*
X120830000Y-61550000D03*
X118500000Y-61550000D03*
X109600000Y-68800000D03*
X111930000Y-68800000D03*
X111930000Y-67600000D03*
X109600000Y-67600000D03*
X124350000Y-71800000D03*
X126680000Y-71800000D03*
X126680000Y-70600000D03*
X124350000Y-70600000D03*
X127350000Y-58550000D03*
X129680000Y-58550000D03*
X129680000Y-57350000D03*
X127350000Y-57350000D03*
X113100000Y-55300000D03*
X115430000Y-55300000D03*
X115430000Y-54100000D03*
X113100000Y-54100000D03*
X115500000Y-48350000D03*
X117830000Y-48350000D03*
X117830000Y-47150000D03*
X115500000Y-47150000D03*
X104700000Y-53750000D03*
X107030000Y-53750000D03*
X107030000Y-52550000D03*
X104700000Y-52550000D03*
X99800000Y-65450000D03*
X102130000Y-65450000D03*
X102130000Y-64250000D03*
X99800000Y-64250000D03*
G04 #@! TA.AperFunction,SMDPad,CuDef*
G36*
G01*
X116950000Y-82200001D02*
X116950000Y-81299999D01*
G75*
G02*
X117199999Y-81050000I249999J0D01*
G01*
X117850001Y-81050000D01*
G75*
G02*
X118100000Y-81299999I0J-249999D01*
G01*
X118100000Y-82200001D01*
G75*
G02*
X117850001Y-82450000I-249999J0D01*
G01*
X117199999Y-82450000D01*
G75*
G02*
X116950000Y-82200001I0J249999D01*
G01*
G37*
G04 #@! TD.AperFunction*
G04 #@! TA.AperFunction,SMDPad,CuDef*
G36*
G01*
X114900000Y-82200001D02*
X114900000Y-81299999D01*
G75*
G02*
X115149999Y-81050000I249999J0D01*
G01*
X115800001Y-81050000D01*
G75*
G02*
X116050000Y-81299999I0J-249999D01*
G01*
X116050000Y-82200001D01*
G75*
G02*
X115800001Y-82450000I-249999J0D01*
G01*
X115149999Y-82450000D01*
G75*
G02*
X114900000Y-82200001I0J249999D01*
G01*
G37*
G04 #@! TD.AperFunction*
D12*
X136150000Y-37095000D03*
X136150000Y-38365000D03*
X136150000Y-39635000D03*
X136150000Y-40905000D03*
X128850000Y-40905000D03*
X128850000Y-39635000D03*
X128850000Y-38365000D03*
X128850000Y-37095000D03*
D13*
X104500000Y-39250000D03*
D14*
X116400000Y-39250000D03*
X92600000Y-39250000D03*
G04 #@! TA.AperFunction,SMDPad,CuDef*
G36*
G01*
X111950000Y-82200001D02*
X111950000Y-81299999D01*
G75*
G02*
X112199999Y-81050000I249999J0D01*
G01*
X112850001Y-81050000D01*
G75*
G02*
X113100000Y-81299999I0J-249999D01*
G01*
X113100000Y-82200001D01*
G75*
G02*
X112850001Y-82450000I-249999J0D01*
G01*
X112199999Y-82450000D01*
G75*
G02*
X111950000Y-82200001I0J249999D01*
G01*
G37*
G04 #@! TD.AperFunction*
G04 #@! TA.AperFunction,SMDPad,CuDef*
G36*
G01*
X109900000Y-82200001D02*
X109900000Y-81299999D01*
G75*
G02*
X110149999Y-81050000I249999J0D01*
G01*
X110800001Y-81050000D01*
G75*
G02*
X111050000Y-81299999I0J-249999D01*
G01*
X111050000Y-82200001D01*
G75*
G02*
X110800001Y-82450000I-249999J0D01*
G01*
X110149999Y-82450000D01*
G75*
G02*
X109900000Y-82200001I0J249999D01*
G01*
G37*
G04 #@! TD.AperFunction*
G04 #@! TA.AperFunction,SMDPad,CuDef*
G36*
G01*
X99850000Y-56299999D02*
X99850000Y-57200001D01*
G75*
G02*
X99600001Y-57450000I-249999J0D01*
G01*
X98949999Y-57450000D01*
G75*
G02*
X98700000Y-57200001I0J249999D01*
G01*
X98700000Y-56299999D01*
G75*
G02*
X98949999Y-56050000I249999J0D01*
G01*
X99600001Y-56050000D01*
G75*
G02*
X99850000Y-56299999I0J-249999D01*
G01*
G37*
G04 #@! TD.AperFunction*
G04 #@! TA.AperFunction,SMDPad,CuDef*
G36*
G01*
X97800000Y-56299999D02*
X97800000Y-57200001D01*
G75*
G02*
X97550001Y-57450000I-249999J0D01*
G01*
X96899999Y-57450000D01*
G75*
G02*
X96650000Y-57200001I0J249999D01*
G01*
X96650000Y-56299999D01*
G75*
G02*
X96899999Y-56050000I249999J0D01*
G01*
X97550001Y-56050000D01*
G75*
G02*
X97800000Y-56299999I0J-249999D01*
G01*
G37*
G04 #@! TD.AperFunction*
G04 #@! TA.AperFunction,SMDPad,CuDef*
G36*
G01*
X101850000Y-71299999D02*
X101850000Y-72200001D01*
G75*
G02*
X101600001Y-72450000I-249999J0D01*
G01*
X100949999Y-72450000D01*
G75*
G02*
X100700000Y-72200001I0J249999D01*
G01*
X100700000Y-71299999D01*
G75*
G02*
X100949999Y-71050000I249999J0D01*
G01*
X101600001Y-71050000D01*
G75*
G02*
X101850000Y-71299999I0J-249999D01*
G01*
G37*
G04 #@! TD.AperFunction*
G04 #@! TA.AperFunction,SMDPad,CuDef*
G36*
G01*
X99800000Y-71299999D02*
X99800000Y-72200001D01*
G75*
G02*
X99550001Y-72450000I-249999J0D01*
G01*
X98899999Y-72450000D01*
G75*
G02*
X98650000Y-72200001I0J249999D01*
G01*
X98650000Y-71299999D01*
G75*
G02*
X98899999Y-71050000I249999J0D01*
G01*
X99550001Y-71050000D01*
G75*
G02*
X99800000Y-71299999I0J-249999D01*
G01*
G37*
G04 #@! TD.AperFunction*
G04 #@! TA.AperFunction,SMDPad,CuDef*
G36*
G01*
X99800000Y-73799999D02*
X99800000Y-74700001D01*
G75*
G02*
X99550001Y-74950000I-249999J0D01*
G01*
X98899999Y-74950000D01*
G75*
G02*
X98650000Y-74700001I0J249999D01*
G01*
X98650000Y-73799999D01*
G75*
G02*
X98899999Y-73550000I249999J0D01*
G01*
X99550001Y-73550000D01*
G75*
G02*
X99800000Y-73799999I0J-249999D01*
G01*
G37*
G04 #@! TD.AperFunction*
G04 #@! TA.AperFunction,SMDPad,CuDef*
G36*
G01*
X101850000Y-73799999D02*
X101850000Y-74700001D01*
G75*
G02*
X101600001Y-74950000I-249999J0D01*
G01*
X100949999Y-74950000D01*
G75*
G02*
X100700000Y-74700001I0J249999D01*
G01*
X100700000Y-73799999D01*
G75*
G02*
X100949999Y-73550000I249999J0D01*
G01*
X101600001Y-73550000D01*
G75*
G02*
X101850000Y-73799999I0J-249999D01*
G01*
G37*
G04 #@! TD.AperFunction*
G04 #@! TA.AperFunction,SMDPad,CuDef*
G36*
G01*
X101850000Y-76299999D02*
X101850000Y-77200001D01*
G75*
G02*
X101600001Y-77450000I-249999J0D01*
G01*
X100949999Y-77450000D01*
G75*
G02*
X100700000Y-77200001I0J249999D01*
G01*
X100700000Y-76299999D01*
G75*
G02*
X100949999Y-76050000I249999J0D01*
G01*
X101600001Y-76050000D01*
G75*
G02*
X101850000Y-76299999I0J-249999D01*
G01*
G37*
G04 #@! TD.AperFunction*
G04 #@! TA.AperFunction,SMDPad,CuDef*
G36*
G01*
X99800000Y-76299999D02*
X99800000Y-77200001D01*
G75*
G02*
X99550001Y-77450000I-249999J0D01*
G01*
X98899999Y-77450000D01*
G75*
G02*
X98650000Y-77200001I0J249999D01*
G01*
X98650000Y-76299999D01*
G75*
G02*
X98899999Y-76050000I249999J0D01*
G01*
X99550001Y-76050000D01*
G75*
G02*
X99800000Y-76299999I0J-249999D01*
G01*
G37*
G04 #@! TD.AperFunction*
G04 #@! TA.AperFunction,SMDPad,CuDef*
G36*
G01*
X99800000Y-78799999D02*
X99800000Y-79700001D01*
G75*
G02*
X99550001Y-79950000I-249999J0D01*
G01*
X98899999Y-79950000D01*
G75*
G02*
X98650000Y-79700001I0J249999D01*
G01*
X98650000Y-78799999D01*
G75*
G02*
X98899999Y-78550000I249999J0D01*
G01*
X99550001Y-78550000D01*
G75*
G02*
X99800000Y-78799999I0J-249999D01*
G01*
G37*
G04 #@! TD.AperFunction*
G04 #@! TA.AperFunction,SMDPad,CuDef*
G36*
G01*
X101850000Y-78799999D02*
X101850000Y-79700001D01*
G75*
G02*
X101600001Y-79950000I-249999J0D01*
G01*
X100949999Y-79950000D01*
G75*
G02*
X100700000Y-79700001I0J249999D01*
G01*
X100700000Y-78799999D01*
G75*
G02*
X100949999Y-78550000I249999J0D01*
G01*
X101600001Y-78550000D01*
G75*
G02*
X101850000Y-78799999I0J-249999D01*
G01*
G37*
G04 #@! TD.AperFunction*
D15*
X124000000Y-32750000D03*
X124000000Y-35250000D03*
X121500000Y-35250000D03*
X124000000Y-30250000D03*
X121500000Y-32750000D03*
X121500000Y-30250000D03*
D16*
X117250000Y-85600000D03*
X110950000Y-85600000D03*
X117250000Y-89400000D03*
X110950000Y-89400000D03*
D17*
X94047520Y-50952100D03*
X94047520Y-52450700D03*
X94047520Y-55447900D03*
D18*
X91301780Y-49550020D03*
D19*
X93399820Y-49550020D03*
D18*
X91301780Y-56849980D03*
D19*
X93399820Y-56849980D03*
D20*
X99400000Y-58500000D03*
X111600000Y-79900000D03*
X120100000Y-30900000D03*
X107700000Y-39000000D03*
X106900000Y-56800000D03*
X132574847Y-61100153D03*
X132600000Y-58700000D03*
X126700000Y-63400000D03*
X125150000Y-63050000D03*
X124100000Y-58400000D03*
X119310247Y-56074979D03*
X103450000Y-79050000D03*
X125900000Y-37000000D03*
X119600000Y-43300000D03*
X98200000Y-44600000D03*
X108200000Y-55800000D03*
X97200000Y-54800000D03*
X128300000Y-53600000D03*
X118400000Y-44800000D03*
X104800000Y-50000000D03*
X97300000Y-72400000D03*
X133800000Y-61000000D03*
X133800000Y-62750000D03*
X133800000Y-64500000D03*
X96512653Y-64312653D03*
X121000000Y-56550000D03*
X113150000Y-61200000D03*
X115000000Y-51225000D03*
X113200000Y-49000000D03*
X135000000Y-54600000D03*
X120700000Y-78525019D03*
D21*
X112525000Y-81750000D02*
X115550000Y-81750000D01*
X115550000Y-81750000D02*
X115600000Y-81700000D01*
X101275000Y-79250000D02*
X101275000Y-71725000D01*
X101275000Y-71725000D02*
X101300000Y-71700000D01*
X129580000Y-58550000D02*
X129730000Y-58700000D01*
X99400000Y-58500000D02*
X99400000Y-56700000D01*
X111600000Y-79900000D02*
X112200000Y-79900000D01*
X112200000Y-79900000D02*
X112600000Y-80300000D01*
X112600000Y-80300000D02*
X112600000Y-81800000D01*
X120750000Y-30250000D02*
X120100000Y-30900000D01*
X121500000Y-30250000D02*
X120750000Y-30250000D01*
X107700000Y-39000000D02*
X104100000Y-39000000D01*
X104100000Y-39000000D02*
X104100000Y-39100000D01*
X99275000Y-42125000D02*
X102100000Y-39300000D01*
X102100000Y-39300000D02*
X104400000Y-39300000D01*
X99275000Y-56750000D02*
X99275000Y-42125000D01*
X106930000Y-53750000D02*
X106930000Y-56770000D01*
X106930000Y-56770000D02*
X106900000Y-56800000D01*
X116836410Y-50500000D02*
X114600000Y-50500000D01*
X117730000Y-48350000D02*
X117730000Y-49606410D01*
X117730000Y-49606410D02*
X116836410Y-50500000D01*
X107700000Y-53500000D02*
X110700000Y-50500000D01*
X107180000Y-53500000D02*
X107700000Y-53500000D01*
X110700000Y-50500000D02*
X114700000Y-50500000D01*
X106930000Y-53750000D02*
X107180000Y-53500000D01*
X126680000Y-71800000D02*
X127480000Y-71800000D01*
X129730000Y-58700000D02*
X132600000Y-58700000D01*
X127480000Y-71800000D02*
X128015000Y-71265000D01*
X124850000Y-62750000D02*
X125150000Y-63050000D01*
X124850000Y-62750000D02*
X120800000Y-62750000D01*
X125150000Y-59450000D02*
X124100000Y-58400000D01*
X125150000Y-63050000D02*
X125150000Y-59450000D01*
X115300000Y-55300000D02*
X116500000Y-55300000D01*
X116500000Y-50500000D02*
X116500000Y-55300000D01*
X116500000Y-55300000D02*
X117274979Y-56074979D01*
X117274979Y-56074979D02*
X119310247Y-56074979D01*
X101000000Y-60100000D02*
X99400000Y-58500000D01*
X101000000Y-65170000D02*
X101000000Y-60100000D01*
X101280000Y-65450000D02*
X101000000Y-65170000D01*
X102030000Y-65450000D02*
X101280000Y-65450000D01*
X111800000Y-69700000D02*
X111800000Y-68800000D01*
X111500000Y-70000000D02*
X111800000Y-69700000D01*
X102550000Y-70000000D02*
X111500000Y-70000000D01*
X101275000Y-71275000D02*
X102550000Y-70000000D01*
X101275000Y-71750000D02*
X101275000Y-71275000D01*
X103250000Y-79250000D02*
X103450000Y-79050000D01*
X101275000Y-79250000D02*
X103250000Y-79250000D01*
X128650000Y-65350000D02*
X126700000Y-63400000D01*
X128650000Y-70630000D02*
X128650000Y-65350000D01*
X128015000Y-71265000D02*
X128650000Y-70630000D01*
X133050000Y-61575306D02*
X132574847Y-61100153D01*
X133050000Y-68200000D02*
X133050000Y-61575306D01*
X129985000Y-71265000D02*
X133050000Y-68200000D01*
X128015000Y-71265000D02*
X129985000Y-71265000D01*
X135800000Y-42300000D02*
X136150000Y-41950000D01*
X136150000Y-41950000D02*
X136150000Y-40905000D01*
X135800000Y-55500000D02*
X135800000Y-42300000D01*
X132600000Y-58700000D02*
X135800000Y-55500000D01*
X92600000Y-39250000D02*
X95750000Y-36100000D01*
X95750000Y-36100000D02*
X113100000Y-36100000D01*
X113100000Y-36100000D02*
X116200000Y-39200000D01*
X95900000Y-42300000D02*
X93100000Y-39500000D01*
X95900000Y-51597520D02*
X95900000Y-42300000D01*
X95046820Y-52450700D02*
X95900000Y-51597520D01*
X94047520Y-52450700D02*
X95046820Y-52450700D01*
X110475000Y-81750000D02*
X110475000Y-85275000D01*
X110475000Y-85275000D02*
X110900000Y-85700000D01*
X110950000Y-85600000D02*
X117400000Y-85600000D01*
X91525419Y-51329600D02*
X91525419Y-53025419D01*
X91928200Y-50926819D02*
X91525419Y-51329600D01*
X94022239Y-50926819D02*
X91928200Y-50926819D01*
X94047520Y-50952100D02*
X94022239Y-50926819D01*
X91525419Y-53025419D02*
X92100000Y-53600000D01*
X92100000Y-53600000D02*
X96000000Y-53600000D01*
X96000000Y-53600000D02*
X97200000Y-54800000D01*
X97200000Y-54800000D02*
X97200000Y-56800000D01*
X124000000Y-35250000D02*
X128050000Y-35250000D01*
X128050000Y-35250000D02*
X128700000Y-35900000D01*
X128700000Y-35900000D02*
X128700000Y-37100000D01*
X109400000Y-81700000D02*
X110500000Y-81700000D01*
X98600000Y-81700000D02*
X109400000Y-81700000D01*
X97300000Y-80400000D02*
X98600000Y-81700000D01*
X97300000Y-72400000D02*
X97300000Y-80400000D01*
X97950000Y-71750000D02*
X97300000Y-72400000D01*
X99225000Y-71750000D02*
X97950000Y-71750000D01*
X125900000Y-37000000D02*
X128700000Y-37000000D01*
X97225000Y-56750000D02*
X97225000Y-45575000D01*
X97225000Y-45575000D02*
X98200000Y-44600000D01*
X115700000Y-61550000D02*
X118600000Y-61550000D01*
X113950000Y-59800000D02*
X115700000Y-61550000D01*
X112200000Y-59800000D02*
X113950000Y-59800000D01*
X108200000Y-55800000D02*
X112200000Y-59800000D01*
X99225000Y-74250000D02*
X99225000Y-73550000D01*
X118400000Y-44800000D02*
X116500000Y-44800000D01*
X116500000Y-44800000D02*
X115600000Y-45700000D01*
X115600000Y-45700000D02*
X115600000Y-47200000D01*
X104800000Y-50000000D02*
X104800000Y-52500000D01*
X99225000Y-79250000D02*
X99225000Y-76875000D01*
X99225000Y-76875000D02*
X99250000Y-76850000D01*
X99250000Y-76850000D02*
X99150000Y-76750000D01*
X99225000Y-71750000D02*
X99225000Y-74225000D01*
X99225000Y-74250000D02*
X99225000Y-76625000D01*
X114350000Y-54600000D02*
X113850000Y-54100000D01*
X114350000Y-56050000D02*
X114350000Y-54600000D01*
X115099989Y-56799989D02*
X114350000Y-56050000D01*
X113850000Y-54100000D02*
X113200000Y-54100000D01*
X119650011Y-56799989D02*
X115099989Y-56799989D01*
X122850000Y-53600000D02*
X119650011Y-56799989D01*
X128300000Y-53600000D02*
X122850000Y-53600000D01*
X104000000Y-80700000D02*
X105250000Y-80700000D01*
X100500000Y-80700000D02*
X104000000Y-80700000D01*
X99225000Y-79250000D02*
X99225000Y-80275000D01*
X99650000Y-80700000D02*
X100500000Y-80700000D01*
X99225000Y-80275000D02*
X99650000Y-80700000D01*
X97300000Y-72400000D02*
X97300000Y-72400000D01*
X99225000Y-71750000D02*
X99225000Y-71225000D01*
X102850000Y-67600000D02*
X104050000Y-67600000D01*
X99225000Y-71225000D02*
X102850000Y-67600000D01*
X104050000Y-67600000D02*
X109700000Y-67600000D01*
X103836810Y-67600000D02*
X104050000Y-67600000D01*
X133800000Y-68300000D02*
X126000000Y-76100000D01*
X126000000Y-76100000D02*
X122350000Y-76100000D01*
X132900000Y-60100000D02*
X133800000Y-61000000D01*
X129400000Y-60100000D02*
X132900000Y-60100000D01*
X128600000Y-59300000D02*
X129400000Y-60100000D01*
X133800000Y-61000000D02*
X133800000Y-62750000D01*
X128200000Y-57350000D02*
X128600000Y-57750000D01*
X127450000Y-57350000D02*
X128200000Y-57350000D01*
X128600000Y-57750000D02*
X128600000Y-59300000D01*
X127450000Y-57050000D02*
X127450000Y-57350000D01*
X133800000Y-61000000D02*
X133800000Y-61000000D01*
X133800000Y-62750000D02*
X133800000Y-64500000D01*
X133800000Y-64500000D02*
X133800000Y-68300000D01*
X94600000Y-69150000D02*
X97150000Y-71700000D01*
X97150000Y-71700000D02*
X99200000Y-71700000D01*
X94600000Y-59375000D02*
X94600000Y-69150000D01*
X97225000Y-56750000D02*
X94600000Y-59375000D01*
X123350000Y-70600000D02*
X124400000Y-70600000D01*
X122700000Y-71250000D02*
X123350000Y-70600000D01*
X122300000Y-76100000D02*
X122700000Y-75700000D01*
X113300000Y-76100000D02*
X122300000Y-76100000D01*
X108700000Y-80700000D02*
X113300000Y-76100000D01*
X122700000Y-75700000D02*
X122700000Y-71250000D01*
X104000000Y-80700000D02*
X108700000Y-80700000D01*
X99600000Y-64050000D02*
X99800000Y-64250000D01*
X96775306Y-64050000D02*
X99600000Y-64050000D01*
X96512653Y-64312653D02*
X96775306Y-64050000D01*
X122912999Y-31662999D02*
X120137001Y-31662999D01*
X124000000Y-32750000D02*
X122912999Y-31662999D01*
X120137001Y-31662999D02*
X119800000Y-32000000D01*
X119800000Y-32000000D02*
X119800000Y-36600000D01*
X119800000Y-36600000D02*
X122800000Y-39600000D01*
X122800000Y-39600000D02*
X128800000Y-39600000D01*
X121500000Y-35250000D02*
X124650000Y-38400000D01*
X124650000Y-38400000D02*
X128800000Y-38400000D01*
X122912999Y-29162999D02*
X120637001Y-29162999D01*
X124000000Y-30250000D02*
X122912999Y-29162999D01*
X119349991Y-36786401D02*
X123463590Y-40900000D01*
X119349990Y-30450010D02*
X119349991Y-36786401D01*
X120637001Y-29162999D02*
X119349990Y-30450010D01*
X123463590Y-40900000D02*
X128900000Y-40900000D01*
X136200000Y-35500000D02*
X136200000Y-37100000D01*
X134800000Y-34100000D02*
X136200000Y-35500000D01*
X122850000Y-34100000D02*
X134800000Y-34100000D01*
X121500000Y-32750000D02*
X122850000Y-34100000D01*
X123150000Y-54400000D02*
X121000000Y-56550000D01*
X132850000Y-54400000D02*
X123150000Y-54400000D01*
X133900000Y-53350000D02*
X132850000Y-54400000D01*
X133900000Y-39515000D02*
X133900000Y-53350000D01*
X135050000Y-38365000D02*
X133900000Y-39515000D01*
X136150000Y-38365000D02*
X135050000Y-38365000D01*
X113150000Y-63600000D02*
X113150000Y-61200000D01*
X113650000Y-64100000D02*
X113150000Y-63600000D01*
X117300000Y-64100000D02*
X113650000Y-64100000D01*
X118600000Y-62800000D02*
X117300000Y-64100000D01*
X120000000Y-61500000D02*
X120700000Y-61500000D01*
X119700000Y-63400000D02*
X119700000Y-61800000D01*
X118549990Y-64550010D02*
X119700000Y-63400000D01*
X112999990Y-64550010D02*
X118549990Y-64550010D01*
X110700000Y-66850000D02*
X112999990Y-64550010D01*
X119700000Y-61800000D02*
X120000000Y-61500000D01*
X110700000Y-68550000D02*
X110700000Y-66850000D01*
X110450000Y-68800000D02*
X110700000Y-68550000D01*
X109700000Y-68800000D02*
X110450000Y-68800000D01*
X125275001Y-69939999D02*
X122835002Y-67500000D01*
X125275001Y-71724999D02*
X125275001Y-69939999D01*
X125200000Y-71800000D02*
X125275001Y-71724999D01*
X124450000Y-71800000D02*
X125200000Y-71800000D01*
X122835002Y-67500000D02*
X111900000Y-67500000D01*
X126600000Y-64750000D02*
X126600000Y-70600000D01*
X125900000Y-64050000D02*
X126600000Y-64750000D01*
X125900000Y-60100000D02*
X125900000Y-64050000D01*
X127450000Y-58550000D02*
X125900000Y-60100000D01*
X113200000Y-56900000D02*
X113200000Y-55300000D01*
X113550000Y-57250000D02*
X113200000Y-56900000D01*
X119909389Y-57250000D02*
X113550000Y-57250000D01*
X120284402Y-57625013D02*
X119909389Y-57250000D01*
X125174987Y-57625013D02*
X120284402Y-57625013D01*
X126200010Y-56599990D02*
X125174987Y-57625013D01*
X128829990Y-56599990D02*
X126200010Y-56599990D01*
X129580000Y-57350000D02*
X128829990Y-56599990D01*
X115330000Y-51555000D02*
X115000000Y-51225000D01*
X115330000Y-54100000D02*
X115330000Y-51555000D01*
X115100000Y-48000000D02*
X115500000Y-48400000D01*
X113700000Y-48000000D02*
X115100000Y-48000000D01*
X113200000Y-48500000D02*
X113700000Y-48000000D01*
X113200000Y-49000000D02*
X113200000Y-48500000D01*
X116700000Y-47894998D02*
X117394998Y-47200000D01*
X116700000Y-49100000D02*
X116700000Y-47894998D01*
X116000000Y-49800000D02*
X116700000Y-49100000D01*
X106524999Y-49274999D02*
X107050000Y-49800000D01*
X104375001Y-49274999D02*
X106524999Y-49274999D01*
X103250000Y-50400000D02*
X104375001Y-49274999D01*
X117394998Y-47200000D02*
X117700000Y-47200000D01*
X103250000Y-53350000D02*
X103250000Y-50400000D01*
X103700000Y-53800000D02*
X103250000Y-53350000D01*
X107050000Y-49800000D02*
X116000000Y-49800000D01*
X104700000Y-53800000D02*
X103700000Y-53800000D01*
X105900000Y-64600000D02*
X105900000Y-52900000D01*
X103950000Y-66550000D02*
X105900000Y-64600000D01*
X100450000Y-66550000D02*
X103950000Y-66550000D01*
X106300000Y-52500000D02*
X107000000Y-52500000D01*
X105900000Y-52900000D02*
X106300000Y-52500000D01*
X99900000Y-66000000D02*
X100450000Y-66550000D01*
X99900000Y-65450000D02*
X99900000Y-66000000D01*
X110950000Y-89400000D02*
X117200000Y-89400000D01*
X118425001Y-82650001D02*
X118425001Y-88174999D01*
X117525000Y-81750000D02*
X118425001Y-82650001D01*
X118425001Y-88174999D02*
X117300000Y-89300000D01*
X117300000Y-89300000D02*
X117200000Y-89300000D01*
X120700000Y-78525019D02*
X119874981Y-78525019D01*
X119874981Y-78525019D02*
X117500000Y-80900000D01*
X117500000Y-80900000D02*
X117500000Y-81800000D01*
X134700000Y-54300000D02*
X135000000Y-54600000D01*
X134700000Y-40300000D02*
X134700000Y-54300000D01*
X135365000Y-39635000D02*
X134700000Y-40300000D01*
X136150000Y-39635000D02*
X135365000Y-39635000D01*
M02*
