M48
; DRILL file {KiCad 5.1.7-a382d34a8~87~ubuntu20.04.1} date Mon Dec 28 23:52:07 2020
; FORMAT={-:-/ absolute / metric / decimal}
; #@! TF.CreationDate,2020-12-28T23:52:07+01:00
; #@! TF.GenerationSoftware,Kicad,Pcbnew,5.1.7-a382d34a8~87~ubuntu20.04.1
; #@! TF.FileFunction,Plated,1,2,PTH
FMAT,2
METRIC
T1C0.400
T2C4.050
%
G90
G05
T1
X96.513Y-64.313
X97.2Y-54.8
X97.3Y-72.4
X98.2Y-44.6
X99.4Y-58.5
X103.45Y-79.05
X104.8Y-50.0
X106.9Y-56.8
X107.7Y-39.0
X108.2Y-55.8
X111.6Y-79.9
X113.15Y-61.2
X113.2Y-49.0
X115.0Y-51.225
X118.4Y-44.8
X119.31Y-56.075
X119.6Y-43.3
X120.1Y-30.9
X120.7Y-78.525
X121.0Y-56.55
X124.1Y-58.4
X125.15Y-63.05
X125.9Y-37.0
X126.7Y-63.4
X128.3Y-53.6
X132.575Y-61.1
X132.6Y-58.7
X133.8Y-61.0
X133.8Y-62.75
X133.8Y-64.5
X135.0Y-54.6
T2
X134.166Y-31.502
T0
M30
