G04 #@! TF.GenerationSoftware,KiCad,Pcbnew,5.1.7-a382d34a8~87~ubuntu20.04.1*
G04 #@! TF.CreationDate,2020-12-28T23:51:54+01:00*
G04 #@! TF.ProjectId,blender_badges,626c656e-6465-4725-9f62-61646765732e,rev?*
G04 #@! TF.SameCoordinates,Original*
G04 #@! TF.FileFunction,Profile,NP*
%FSLAX46Y46*%
G04 Gerber Fmt 4.6, Leading zero omitted, Abs format (unit mm)*
G04 Created by KiCad (PCBNEW 5.1.7-a382d34a8~87~ubuntu20.04.1) date 2020-12-28 23:51:54*
%MOMM*%
%LPD*%
G01*
G04 APERTURE LIST*
G04 #@! TA.AperFunction,Profile*
%ADD10C,0.100000*%
G04 #@! TD*
G04 APERTURE END LIST*
D10*
X94612900Y-28328440D02*
X94612900Y-28328430D01*
X133773400Y-28328440D02*
X94612900Y-28328440D01*
X134164000Y-28348030D02*
X133773400Y-28328440D01*
X134543100Y-28405550D02*
X134164000Y-28348030D01*
X134908700Y-28499110D02*
X134543100Y-28405550D01*
X135259100Y-28626840D02*
X134908700Y-28499110D01*
X135592200Y-28786830D02*
X135259100Y-28626840D01*
X135906300Y-28977220D02*
X135592200Y-28786830D01*
X136199500Y-29196100D02*
X135906300Y-28977220D01*
X136469800Y-29441610D02*
X136199500Y-29196100D01*
X136715300Y-29711840D02*
X136469800Y-29441610D01*
X136934300Y-30004930D02*
X136715300Y-29711840D01*
X137124700Y-30318970D02*
X136934300Y-30004930D01*
X137284700Y-30652090D02*
X137124700Y-30318970D01*
X137412500Y-31002400D02*
X137284700Y-30652090D01*
X137506100Y-31368010D02*
X137412500Y-31002400D01*
X137563600Y-31747050D02*
X137506100Y-31368010D01*
X137583200Y-32137620D02*
X137563600Y-31747050D01*
X137583200Y-34725990D02*
X137583200Y-32137620D01*
X137583200Y-70242100D02*
X137583200Y-34725990D01*
X137595600Y-70710400D02*
X137583200Y-70242100D01*
X137583200Y-71160400D02*
X137595600Y-70710400D01*
X137583200Y-72829900D02*
X137583200Y-71160400D01*
X137596200Y-73240100D02*
X137583200Y-72829900D01*
X137590500Y-73636200D02*
X137596200Y-73240100D01*
X137565600Y-74019300D02*
X137590500Y-73636200D01*
X137521100Y-74390800D02*
X137565600Y-74019300D01*
X137456700Y-74751900D02*
X137521100Y-74390800D01*
X137371800Y-75103700D02*
X137456700Y-74751900D01*
X137266100Y-75447600D02*
X137371800Y-75103700D01*
X137139300Y-75784800D02*
X137266100Y-75447600D01*
X136990800Y-76116400D02*
X137139300Y-75784800D01*
X136820300Y-76443800D02*
X136990800Y-76116400D01*
X136627300Y-76768100D02*
X136820300Y-76443800D01*
X136411500Y-77090700D02*
X136627300Y-76768100D01*
X136172500Y-77412600D02*
X136411500Y-77090700D01*
X135909800Y-77735300D02*
X136172500Y-77412600D01*
X135311700Y-78387500D02*
X135909800Y-77735300D01*
X134614100Y-79057200D02*
X135311700Y-78387500D01*
X133813600Y-79754300D02*
X134614100Y-79057200D01*
X132907000Y-80488500D02*
X133813600Y-79754300D01*
X131891000Y-81269900D02*
X132907000Y-80488500D01*
X129517700Y-83013500D02*
X131891000Y-81269900D01*
X126667500Y-85063900D02*
X129517700Y-83013500D01*
X124386200Y-86709100D02*
X126667500Y-85063900D01*
X122389900Y-88134900D02*
X124386200Y-86709100D01*
X120637900Y-89341100D02*
X122389900Y-88134900D01*
X119840900Y-89861700D02*
X120637900Y-89341100D01*
X119089700Y-90327400D02*
X119840900Y-89861700D01*
X118379300Y-90738200D02*
X119089700Y-90327400D01*
X117704700Y-91093800D02*
X118379300Y-90738200D01*
X117060700Y-91394500D02*
X117704700Y-91093800D01*
X116442400Y-91640100D02*
X117060700Y-91394500D01*
X115844500Y-91830600D02*
X116442400Y-91640100D01*
X115262100Y-91966100D02*
X115844500Y-91830600D01*
X114690100Y-92046300D02*
X115262100Y-91966100D01*
X114123300Y-92071500D02*
X114690100Y-92046300D01*
X113556900Y-92041500D02*
X114123300Y-92071500D01*
X112985500Y-91956300D02*
X113556900Y-92041500D01*
X112404300Y-91815900D02*
X112985500Y-91956300D01*
X111808100Y-91620200D02*
X112404300Y-91815900D01*
X111191900Y-91369400D02*
X111808100Y-91620200D01*
X110550500Y-91063200D02*
X111191900Y-91369400D01*
X109878900Y-90701800D02*
X110550500Y-91063200D01*
X109172100Y-90285000D02*
X109878900Y-90701800D01*
X108424900Y-89812900D02*
X109172100Y-90285000D01*
X107632400Y-89285400D02*
X108424900Y-89812900D01*
X105890800Y-88064300D02*
X107632400Y-89285400D01*
X103906700Y-86621500D02*
X105890800Y-88064300D01*
X101639600Y-84956800D02*
X103906700Y-86621500D01*
X99146100Y-83131200D02*
X101639600Y-84956800D01*
X97014700Y-81549100D02*
X99146100Y-83131200D01*
X96079500Y-80833100D02*
X97014700Y-81549100D01*
X95228600Y-80158300D02*
X96079500Y-80833100D01*
X94459700Y-79518300D02*
X95228600Y-80158300D01*
X93770700Y-78906500D02*
X94459700Y-79518300D01*
X93159700Y-78316300D02*
X93770700Y-78906500D01*
X92624300Y-77741300D02*
X93159700Y-78316300D01*
X92162700Y-77174900D02*
X92624300Y-77741300D01*
X91772500Y-76610600D02*
X92162700Y-77174900D01*
X91451780Y-76041700D02*
X91772500Y-76610600D01*
X91198350Y-75461900D02*
X91451780Y-76041700D01*
X91010120Y-74864600D02*
X91198350Y-75461900D01*
X90884970Y-74243100D02*
X91010120Y-74864600D01*
X90865730Y-74136100D02*
X90884970Y-74243100D01*
X90856080Y-74059700D02*
X90865730Y-74136100D01*
X90817810Y-73761200D02*
X90856080Y-74059700D01*
X90803750Y-73455900D02*
X90817810Y-73761200D01*
X90803750Y-70867500D02*
X90803750Y-73455900D01*
X90803750Y-34725980D02*
X90803750Y-70867500D01*
X90803750Y-32137610D02*
X90803750Y-34725980D01*
X90823350Y-31747040D02*
X90803750Y-32137610D01*
X90880870Y-31368010D02*
X90823350Y-31747040D01*
X90974440Y-31002390D02*
X90880870Y-31368010D01*
X91102160Y-30652080D02*
X90974440Y-31002390D01*
X91262160Y-30318960D02*
X91102160Y-30652080D01*
X91452540Y-30004920D02*
X91262160Y-30318960D01*
X91671430Y-29711840D02*
X91452540Y-30004920D01*
X91916900Y-29441600D02*
X91671430Y-29711840D01*
X92187200Y-29196100D02*
X91916900Y-29441600D01*
X92480200Y-28977210D02*
X92187200Y-29196100D01*
X92794300Y-28786830D02*
X92480200Y-28977210D01*
X93127400Y-28626830D02*
X92794300Y-28786830D01*
X93477700Y-28499110D02*
X93127400Y-28626830D01*
X93843300Y-28405540D02*
X93477700Y-28499110D01*
X94222400Y-28348020D02*
X93843300Y-28405540D01*
X94612900Y-28328430D02*
X94222400Y-28348020D01*
M02*
