G04 #@! TF.GenerationSoftware,KiCad,Pcbnew,5.1.7-a382d34a8~87~ubuntu20.04.1*
G04 #@! TF.CreationDate,2020-12-28T23:51:54+01:00*
G04 #@! TF.ProjectId,blender_badges,626c656e-6465-4725-9f62-61646765732e,rev?*
G04 #@! TF.SameCoordinates,Original*
G04 #@! TF.FileFunction,Paste,Bot*
G04 #@! TF.FilePolarity,Positive*
%FSLAX46Y46*%
G04 Gerber Fmt 4.6, Leading zero omitted, Abs format (unit mm)*
G04 Created by KiCad (PCBNEW 5.1.7-a382d34a8~87~ubuntu20.04.1) date 2020-12-28 23:51:54*
%MOMM*%
%LPD*%
G01*
G04 APERTURE LIST*
%ADD10R,1.100000X0.800000*%
%ADD11R,1.700000X0.650000*%
%ADD12R,3.960000X3.960000*%
%ADD13R,2.640000X5.100000*%
%ADD14C,1.524000*%
%ADD15R,1.700000X1.000000*%
%ADD16R,1.498600X0.698500*%
%ADD17R,0.599440X0.998220*%
%ADD18R,0.797560X0.998220*%
G04 APERTURE END LIST*
D10*
X118500000Y-62750000D03*
X120830000Y-62750000D03*
X120830000Y-61550000D03*
X118500000Y-61550000D03*
X109600000Y-68800000D03*
X111930000Y-68800000D03*
X111930000Y-67600000D03*
X109600000Y-67600000D03*
X124350000Y-71800000D03*
X126680000Y-71800000D03*
X126680000Y-70600000D03*
X124350000Y-70600000D03*
X127350000Y-58550000D03*
X129680000Y-58550000D03*
X129680000Y-57350000D03*
X127350000Y-57350000D03*
X113100000Y-55300000D03*
X115430000Y-55300000D03*
X115430000Y-54100000D03*
X113100000Y-54100000D03*
X115500000Y-48350000D03*
X117830000Y-48350000D03*
X117830000Y-47150000D03*
X115500000Y-47150000D03*
X104700000Y-53750000D03*
X107030000Y-53750000D03*
X107030000Y-52550000D03*
X104700000Y-52550000D03*
X99800000Y-65450000D03*
X102130000Y-65450000D03*
X102130000Y-64250000D03*
X99800000Y-64250000D03*
G36*
G01*
X116950000Y-82200001D02*
X116950000Y-81299999D01*
G75*
G02*
X117199999Y-81050000I249999J0D01*
G01*
X117850001Y-81050000D01*
G75*
G02*
X118100000Y-81299999I0J-249999D01*
G01*
X118100000Y-82200001D01*
G75*
G02*
X117850001Y-82450000I-249999J0D01*
G01*
X117199999Y-82450000D01*
G75*
G02*
X116950000Y-82200001I0J249999D01*
G01*
G37*
G36*
G01*
X114900000Y-82200001D02*
X114900000Y-81299999D01*
G75*
G02*
X115149999Y-81050000I249999J0D01*
G01*
X115800001Y-81050000D01*
G75*
G02*
X116050000Y-81299999I0J-249999D01*
G01*
X116050000Y-82200001D01*
G75*
G02*
X115800001Y-82450000I-249999J0D01*
G01*
X115149999Y-82450000D01*
G75*
G02*
X114900000Y-82200001I0J249999D01*
G01*
G37*
D11*
X136150000Y-37095000D03*
X136150000Y-38365000D03*
X136150000Y-39635000D03*
X136150000Y-40905000D03*
X128850000Y-40905000D03*
X128850000Y-39635000D03*
X128850000Y-38365000D03*
X128850000Y-37095000D03*
D12*
X104500000Y-39250000D03*
D13*
X116400000Y-39250000D03*
X92600000Y-39250000D03*
G36*
G01*
X111950000Y-82200001D02*
X111950000Y-81299999D01*
G75*
G02*
X112199999Y-81050000I249999J0D01*
G01*
X112850001Y-81050000D01*
G75*
G02*
X113100000Y-81299999I0J-249999D01*
G01*
X113100000Y-82200001D01*
G75*
G02*
X112850001Y-82450000I-249999J0D01*
G01*
X112199999Y-82450000D01*
G75*
G02*
X111950000Y-82200001I0J249999D01*
G01*
G37*
G36*
G01*
X109900000Y-82200001D02*
X109900000Y-81299999D01*
G75*
G02*
X110149999Y-81050000I249999J0D01*
G01*
X110800001Y-81050000D01*
G75*
G02*
X111050000Y-81299999I0J-249999D01*
G01*
X111050000Y-82200001D01*
G75*
G02*
X110800001Y-82450000I-249999J0D01*
G01*
X110149999Y-82450000D01*
G75*
G02*
X109900000Y-82200001I0J249999D01*
G01*
G37*
G36*
G01*
X99850000Y-56299999D02*
X99850000Y-57200001D01*
G75*
G02*
X99600001Y-57450000I-249999J0D01*
G01*
X98949999Y-57450000D01*
G75*
G02*
X98700000Y-57200001I0J249999D01*
G01*
X98700000Y-56299999D01*
G75*
G02*
X98949999Y-56050000I249999J0D01*
G01*
X99600001Y-56050000D01*
G75*
G02*
X99850000Y-56299999I0J-249999D01*
G01*
G37*
G36*
G01*
X97800000Y-56299999D02*
X97800000Y-57200001D01*
G75*
G02*
X97550001Y-57450000I-249999J0D01*
G01*
X96899999Y-57450000D01*
G75*
G02*
X96650000Y-57200001I0J249999D01*
G01*
X96650000Y-56299999D01*
G75*
G02*
X96899999Y-56050000I249999J0D01*
G01*
X97550001Y-56050000D01*
G75*
G02*
X97800000Y-56299999I0J-249999D01*
G01*
G37*
G36*
G01*
X101850000Y-71299999D02*
X101850000Y-72200001D01*
G75*
G02*
X101600001Y-72450000I-249999J0D01*
G01*
X100949999Y-72450000D01*
G75*
G02*
X100700000Y-72200001I0J249999D01*
G01*
X100700000Y-71299999D01*
G75*
G02*
X100949999Y-71050000I249999J0D01*
G01*
X101600001Y-71050000D01*
G75*
G02*
X101850000Y-71299999I0J-249999D01*
G01*
G37*
G36*
G01*
X99800000Y-71299999D02*
X99800000Y-72200001D01*
G75*
G02*
X99550001Y-72450000I-249999J0D01*
G01*
X98899999Y-72450000D01*
G75*
G02*
X98650000Y-72200001I0J249999D01*
G01*
X98650000Y-71299999D01*
G75*
G02*
X98899999Y-71050000I249999J0D01*
G01*
X99550001Y-71050000D01*
G75*
G02*
X99800000Y-71299999I0J-249999D01*
G01*
G37*
G36*
G01*
X99800000Y-73799999D02*
X99800000Y-74700001D01*
G75*
G02*
X99550001Y-74950000I-249999J0D01*
G01*
X98899999Y-74950000D01*
G75*
G02*
X98650000Y-74700001I0J249999D01*
G01*
X98650000Y-73799999D01*
G75*
G02*
X98899999Y-73550000I249999J0D01*
G01*
X99550001Y-73550000D01*
G75*
G02*
X99800000Y-73799999I0J-249999D01*
G01*
G37*
G36*
G01*
X101850000Y-73799999D02*
X101850000Y-74700001D01*
G75*
G02*
X101600001Y-74950000I-249999J0D01*
G01*
X100949999Y-74950000D01*
G75*
G02*
X100700000Y-74700001I0J249999D01*
G01*
X100700000Y-73799999D01*
G75*
G02*
X100949999Y-73550000I249999J0D01*
G01*
X101600001Y-73550000D01*
G75*
G02*
X101850000Y-73799999I0J-249999D01*
G01*
G37*
G36*
G01*
X101850000Y-76299999D02*
X101850000Y-77200001D01*
G75*
G02*
X101600001Y-77450000I-249999J0D01*
G01*
X100949999Y-77450000D01*
G75*
G02*
X100700000Y-77200001I0J249999D01*
G01*
X100700000Y-76299999D01*
G75*
G02*
X100949999Y-76050000I249999J0D01*
G01*
X101600001Y-76050000D01*
G75*
G02*
X101850000Y-76299999I0J-249999D01*
G01*
G37*
G36*
G01*
X99800000Y-76299999D02*
X99800000Y-77200001D01*
G75*
G02*
X99550001Y-77450000I-249999J0D01*
G01*
X98899999Y-77450000D01*
G75*
G02*
X98650000Y-77200001I0J249999D01*
G01*
X98650000Y-76299999D01*
G75*
G02*
X98899999Y-76050000I249999J0D01*
G01*
X99550001Y-76050000D01*
G75*
G02*
X99800000Y-76299999I0J-249999D01*
G01*
G37*
G36*
G01*
X99800000Y-78799999D02*
X99800000Y-79700001D01*
G75*
G02*
X99550001Y-79950000I-249999J0D01*
G01*
X98899999Y-79950000D01*
G75*
G02*
X98650000Y-79700001I0J249999D01*
G01*
X98650000Y-78799999D01*
G75*
G02*
X98899999Y-78550000I249999J0D01*
G01*
X99550001Y-78550000D01*
G75*
G02*
X99800000Y-78799999I0J-249999D01*
G01*
G37*
G36*
G01*
X101850000Y-78799999D02*
X101850000Y-79700001D01*
G75*
G02*
X101600001Y-79950000I-249999J0D01*
G01*
X100949999Y-79950000D01*
G75*
G02*
X100700000Y-79700001I0J249999D01*
G01*
X100700000Y-78799999D01*
G75*
G02*
X100949999Y-78550000I249999J0D01*
G01*
X101600001Y-78550000D01*
G75*
G02*
X101850000Y-78799999I0J-249999D01*
G01*
G37*
D14*
X124000000Y-32750000D03*
X124000000Y-35250000D03*
X121500000Y-35250000D03*
X124000000Y-30250000D03*
X121500000Y-32750000D03*
X121500000Y-30250000D03*
D15*
X117250000Y-85600000D03*
X110950000Y-85600000D03*
X117250000Y-89400000D03*
X110950000Y-89400000D03*
D16*
X94047520Y-50952100D03*
X94047520Y-52450700D03*
X94047520Y-55447900D03*
D17*
X91301780Y-49550020D03*
D18*
X93399820Y-49550020D03*
D17*
X91301780Y-56849980D03*
D18*
X93399820Y-56849980D03*
M02*
