G04 #@! TF.GenerationSoftware,KiCad,Pcbnew,5.1.7-a382d34a8~87~ubuntu20.04.1*
G04 #@! TF.CreationDate,2020-12-28T23:51:54+01:00*
G04 #@! TF.ProjectId,blender_badges,626c656e-6465-4725-9f62-61646765732e,rev?*
G04 #@! TF.SameCoordinates,Original*
G04 #@! TF.FileFunction,Legend,Top*
G04 #@! TF.FilePolarity,Positive*
%FSLAX46Y46*%
G04 Gerber Fmt 4.6, Leading zero omitted, Abs format (unit mm)*
G04 Created by KiCad (PCBNEW 5.1.7-a382d34a8~87~ubuntu20.04.1) date 2020-12-28 23:51:54*
%MOMM*%
%LPD*%
G01*
G04 APERTURE LIST*
%ADD10C,0.010000*%
G04 APERTURE END LIST*
D10*
G36*
X120198444Y-57734378D02*
G01*
X120718259Y-57805345D01*
X121221991Y-57924050D01*
X121711189Y-58090838D01*
X122086700Y-58256006D01*
X122534083Y-58498873D01*
X122947400Y-58776400D01*
X123324994Y-59086530D01*
X123665208Y-59427209D01*
X123966384Y-59796383D01*
X124226865Y-60191998D01*
X124444994Y-60611998D01*
X124619115Y-61054329D01*
X124747569Y-61516936D01*
X124758850Y-61569020D01*
X124782980Y-61688963D01*
X124800685Y-61794010D01*
X124812961Y-61896182D01*
X124820807Y-62007502D01*
X124825220Y-62139995D01*
X124827197Y-62305681D01*
X124827566Y-62397100D01*
X124825897Y-62632790D01*
X124818394Y-62831424D01*
X124803294Y-63006582D01*
X124778836Y-63171846D01*
X124743259Y-63340795D01*
X124694800Y-63527009D01*
X124669411Y-63616300D01*
X124516534Y-64053728D01*
X124316967Y-64475256D01*
X124073247Y-64877542D01*
X123787907Y-65257242D01*
X123463483Y-65611015D01*
X123102508Y-65935519D01*
X122707517Y-66227411D01*
X122670900Y-66251631D01*
X122277197Y-66482428D01*
X121849437Y-66682868D01*
X121396496Y-66849749D01*
X120927248Y-66979871D01*
X120450570Y-67070031D01*
X120372200Y-67080795D01*
X120203901Y-67097759D01*
X120003169Y-67110311D01*
X119786717Y-67118045D01*
X119571259Y-67120557D01*
X119373510Y-67117441D01*
X119216500Y-67108833D01*
X118695776Y-67041405D01*
X118191246Y-66929012D01*
X117705712Y-66773244D01*
X117241977Y-66575693D01*
X116802843Y-66337948D01*
X116391114Y-66061599D01*
X116009593Y-65748237D01*
X115661081Y-65399453D01*
X115348382Y-65016837D01*
X115227794Y-64845527D01*
X115116530Y-64665956D01*
X115001110Y-64455167D01*
X114890043Y-64230483D01*
X114791836Y-64009227D01*
X114714997Y-63808720D01*
X114707185Y-63785573D01*
X114584155Y-63335802D01*
X114510609Y-62881976D01*
X114494204Y-62581887D01*
X114719820Y-62581887D01*
X114759643Y-63010422D01*
X114845260Y-63433892D01*
X114976509Y-63849282D01*
X115153231Y-64253575D01*
X115375262Y-64643754D01*
X115642442Y-65016804D01*
X115954609Y-65369708D01*
X116045441Y-65460037D01*
X116386251Y-65763688D01*
X116739797Y-66024857D01*
X117118011Y-66251855D01*
X117353795Y-66371329D01*
X117832407Y-66572218D01*
X118321960Y-66723868D01*
X118823242Y-66826407D01*
X119337043Y-66879966D01*
X119864149Y-66884673D01*
X120295721Y-66853377D01*
X120765420Y-66779307D01*
X121230678Y-66659947D01*
X121684891Y-66498224D01*
X122121456Y-66297067D01*
X122533772Y-66059402D01*
X122915234Y-65788158D01*
X123153500Y-65586152D01*
X123490197Y-65246654D01*
X123786617Y-64880065D01*
X124040949Y-64489596D01*
X124251381Y-64078457D01*
X124416102Y-63649859D01*
X124533302Y-63207012D01*
X124553008Y-63105346D01*
X124576454Y-62931637D01*
X124591813Y-62724122D01*
X124599071Y-62497460D01*
X124598210Y-62266312D01*
X124589215Y-62045338D01*
X124572071Y-61849198D01*
X124554509Y-61730711D01*
X124448913Y-61281507D01*
X124303129Y-60859780D01*
X124115151Y-60461772D01*
X123882977Y-60083726D01*
X123604604Y-59721885D01*
X123318542Y-59412600D01*
X122949939Y-59079344D01*
X122553175Y-58787125D01*
X122131130Y-58536764D01*
X121686678Y-58329082D01*
X121222698Y-58164898D01*
X120742067Y-58045034D01*
X120247662Y-57970309D01*
X119742359Y-57941546D01*
X119229036Y-57959564D01*
X118710570Y-58025184D01*
X118555557Y-58054055D01*
X118107816Y-58166776D01*
X117667530Y-58322699D01*
X117240977Y-58518174D01*
X116834438Y-58749546D01*
X116454189Y-59013165D01*
X116106510Y-59305377D01*
X115797679Y-59622530D01*
X115736865Y-59693738D01*
X115451607Y-60073259D01*
X115213274Y-60468832D01*
X115021703Y-60877439D01*
X114876734Y-61296065D01*
X114778204Y-61721693D01*
X114725954Y-62151305D01*
X114719820Y-62581887D01*
X114494204Y-62581887D01*
X114485752Y-62427296D01*
X114508786Y-61974960D01*
X114578918Y-61528167D01*
X114695351Y-61090117D01*
X114857289Y-60664009D01*
X115063938Y-60253041D01*
X115314500Y-59860414D01*
X115608181Y-59489326D01*
X115835941Y-59247113D01*
X116215857Y-58905448D01*
X116624956Y-58604426D01*
X117060562Y-58345122D01*
X117520000Y-58128611D01*
X118000595Y-57955968D01*
X118499671Y-57828266D01*
X119014555Y-57746580D01*
X119542569Y-57711984D01*
X119661000Y-57710800D01*
X120198444Y-57734378D01*
G37*
X120198444Y-57734378D02*
X120718259Y-57805345D01*
X121221991Y-57924050D01*
X121711189Y-58090838D01*
X122086700Y-58256006D01*
X122534083Y-58498873D01*
X122947400Y-58776400D01*
X123324994Y-59086530D01*
X123665208Y-59427209D01*
X123966384Y-59796383D01*
X124226865Y-60191998D01*
X124444994Y-60611998D01*
X124619115Y-61054329D01*
X124747569Y-61516936D01*
X124758850Y-61569020D01*
X124782980Y-61688963D01*
X124800685Y-61794010D01*
X124812961Y-61896182D01*
X124820807Y-62007502D01*
X124825220Y-62139995D01*
X124827197Y-62305681D01*
X124827566Y-62397100D01*
X124825897Y-62632790D01*
X124818394Y-62831424D01*
X124803294Y-63006582D01*
X124778836Y-63171846D01*
X124743259Y-63340795D01*
X124694800Y-63527009D01*
X124669411Y-63616300D01*
X124516534Y-64053728D01*
X124316967Y-64475256D01*
X124073247Y-64877542D01*
X123787907Y-65257242D01*
X123463483Y-65611015D01*
X123102508Y-65935519D01*
X122707517Y-66227411D01*
X122670900Y-66251631D01*
X122277197Y-66482428D01*
X121849437Y-66682868D01*
X121396496Y-66849749D01*
X120927248Y-66979871D01*
X120450570Y-67070031D01*
X120372200Y-67080795D01*
X120203901Y-67097759D01*
X120003169Y-67110311D01*
X119786717Y-67118045D01*
X119571259Y-67120557D01*
X119373510Y-67117441D01*
X119216500Y-67108833D01*
X118695776Y-67041405D01*
X118191246Y-66929012D01*
X117705712Y-66773244D01*
X117241977Y-66575693D01*
X116802843Y-66337948D01*
X116391114Y-66061599D01*
X116009593Y-65748237D01*
X115661081Y-65399453D01*
X115348382Y-65016837D01*
X115227794Y-64845527D01*
X115116530Y-64665956D01*
X115001110Y-64455167D01*
X114890043Y-64230483D01*
X114791836Y-64009227D01*
X114714997Y-63808720D01*
X114707185Y-63785573D01*
X114584155Y-63335802D01*
X114510609Y-62881976D01*
X114494204Y-62581887D01*
X114719820Y-62581887D01*
X114759643Y-63010422D01*
X114845260Y-63433892D01*
X114976509Y-63849282D01*
X115153231Y-64253575D01*
X115375262Y-64643754D01*
X115642442Y-65016804D01*
X115954609Y-65369708D01*
X116045441Y-65460037D01*
X116386251Y-65763688D01*
X116739797Y-66024857D01*
X117118011Y-66251855D01*
X117353795Y-66371329D01*
X117832407Y-66572218D01*
X118321960Y-66723868D01*
X118823242Y-66826407D01*
X119337043Y-66879966D01*
X119864149Y-66884673D01*
X120295721Y-66853377D01*
X120765420Y-66779307D01*
X121230678Y-66659947D01*
X121684891Y-66498224D01*
X122121456Y-66297067D01*
X122533772Y-66059402D01*
X122915234Y-65788158D01*
X123153500Y-65586152D01*
X123490197Y-65246654D01*
X123786617Y-64880065D01*
X124040949Y-64489596D01*
X124251381Y-64078457D01*
X124416102Y-63649859D01*
X124533302Y-63207012D01*
X124553008Y-63105346D01*
X124576454Y-62931637D01*
X124591813Y-62724122D01*
X124599071Y-62497460D01*
X124598210Y-62266312D01*
X124589215Y-62045338D01*
X124572071Y-61849198D01*
X124554509Y-61730711D01*
X124448913Y-61281507D01*
X124303129Y-60859780D01*
X124115151Y-60461772D01*
X123882977Y-60083726D01*
X123604604Y-59721885D01*
X123318542Y-59412600D01*
X122949939Y-59079344D01*
X122553175Y-58787125D01*
X122131130Y-58536764D01*
X121686678Y-58329082D01*
X121222698Y-58164898D01*
X120742067Y-58045034D01*
X120247662Y-57970309D01*
X119742359Y-57941546D01*
X119229036Y-57959564D01*
X118710570Y-58025184D01*
X118555557Y-58054055D01*
X118107816Y-58166776D01*
X117667530Y-58322699D01*
X117240977Y-58518174D01*
X116834438Y-58749546D01*
X116454189Y-59013165D01*
X116106510Y-59305377D01*
X115797679Y-59622530D01*
X115736865Y-59693738D01*
X115451607Y-60073259D01*
X115213274Y-60468832D01*
X115021703Y-60877439D01*
X114876734Y-61296065D01*
X114778204Y-61721693D01*
X114725954Y-62151305D01*
X114719820Y-62581887D01*
X114494204Y-62581887D01*
X114485752Y-62427296D01*
X114508786Y-61974960D01*
X114578918Y-61528167D01*
X114695351Y-61090117D01*
X114857289Y-60664009D01*
X115063938Y-60253041D01*
X115314500Y-59860414D01*
X115608181Y-59489326D01*
X115835941Y-59247113D01*
X116215857Y-58905448D01*
X116624956Y-58604426D01*
X117060562Y-58345122D01*
X117520000Y-58128611D01*
X118000595Y-57955968D01*
X118499671Y-57828266D01*
X119014555Y-57746580D01*
X119542569Y-57711984D01*
X119661000Y-57710800D01*
X120198444Y-57734378D01*
G36*
X119944354Y-55331800D02*
G01*
X120240935Y-55347815D01*
X120530845Y-55375428D01*
X120828537Y-55415559D01*
X120977229Y-55439337D01*
X121604744Y-55568401D01*
X122216630Y-55742650D01*
X122810010Y-55960434D01*
X123382007Y-56220104D01*
X123929744Y-56520010D01*
X124450344Y-56858504D01*
X124940930Y-57233936D01*
X125398625Y-57644657D01*
X125820551Y-58089017D01*
X126025077Y-58333100D01*
X126308972Y-58717840D01*
X126575568Y-59139572D01*
X126818188Y-59585610D01*
X127030153Y-60043266D01*
X127204784Y-60499856D01*
X127265970Y-60690174D01*
X127404403Y-61234083D01*
X127496647Y-61793321D01*
X127542467Y-62361559D01*
X127541626Y-62932469D01*
X127493888Y-63499724D01*
X127399018Y-64056994D01*
X127392655Y-64086200D01*
X127245740Y-64636029D01*
X127050977Y-65173453D01*
X126810388Y-65695739D01*
X126525995Y-66200156D01*
X126199821Y-66683971D01*
X125833887Y-67144451D01*
X125430215Y-67578866D01*
X124990828Y-67984483D01*
X124517749Y-68358570D01*
X124012998Y-68698394D01*
X123950556Y-68736644D01*
X123393591Y-69046993D01*
X122821936Y-69311077D01*
X122232519Y-69529924D01*
X121622270Y-69704558D01*
X120988119Y-69836005D01*
X120423000Y-69915101D01*
X120275585Y-69927532D01*
X120088652Y-69937308D01*
X119873417Y-69944362D01*
X119641096Y-69948624D01*
X119402904Y-69950027D01*
X119170057Y-69948502D01*
X118953771Y-69943982D01*
X118765263Y-69936399D01*
X118619600Y-69926055D01*
X117996493Y-69843567D01*
X117388568Y-69717629D01*
X116797957Y-69550006D01*
X116226790Y-69342463D01*
X115677199Y-69096766D01*
X115151316Y-68814680D01*
X114651271Y-68497970D01*
X114179196Y-68148402D01*
X113737222Y-67767741D01*
X113327480Y-67357752D01*
X112952102Y-66920200D01*
X112613220Y-66456851D01*
X112312963Y-65969470D01*
X112053464Y-65459822D01*
X111836854Y-64929673D01*
X111665264Y-64380788D01*
X111599610Y-64111600D01*
X111538606Y-63808531D01*
X111494846Y-63520657D01*
X111466531Y-63230703D01*
X111451859Y-62921394D01*
X111448725Y-62663800D01*
X111451248Y-62600656D01*
X111682236Y-62600656D01*
X111684126Y-62870197D01*
X111693579Y-63127272D01*
X111710588Y-63356995D01*
X111722841Y-63463900D01*
X111824230Y-64035280D01*
X111973161Y-64591247D01*
X112168195Y-65129860D01*
X112407895Y-65649180D01*
X112690823Y-66147269D01*
X113015539Y-66622188D01*
X113380607Y-67071998D01*
X113784587Y-67494759D01*
X114226042Y-67888533D01*
X114703532Y-68251381D01*
X115215621Y-68581363D01*
X115724000Y-68858226D01*
X116071358Y-69023823D01*
X116409541Y-69167538D01*
X116746865Y-69291676D01*
X117091650Y-69398540D01*
X117452213Y-69490434D01*
X117836871Y-69569661D01*
X118253944Y-69638525D01*
X118711748Y-69699330D01*
X118797400Y-69709398D01*
X118885458Y-69715374D01*
X119015331Y-69718627D01*
X119178121Y-69719389D01*
X119364929Y-69717888D01*
X119566856Y-69714354D01*
X119775004Y-69709016D01*
X119980473Y-69702104D01*
X120174364Y-69693848D01*
X120347780Y-69684476D01*
X120491820Y-69674220D01*
X120597588Y-69663308D01*
X120600800Y-69662874D01*
X121252838Y-69549997D01*
X121881537Y-69392498D01*
X122488961Y-69189747D01*
X123077178Y-68941112D01*
X123270958Y-68847117D01*
X123710655Y-68610836D01*
X124117383Y-68357529D01*
X124502102Y-68079225D01*
X124875776Y-67767957D01*
X125249364Y-67415753D01*
X125275249Y-67389907D01*
X125558357Y-67096204D01*
X125804812Y-66817229D01*
X126022123Y-66542614D01*
X126217804Y-66261985D01*
X126399366Y-65964973D01*
X126574321Y-65641206D01*
X126647075Y-65495900D01*
X126880035Y-64965003D01*
X127063495Y-64423192D01*
X127197273Y-63871730D01*
X127281186Y-63311881D01*
X127315054Y-62744908D01*
X127298693Y-62172074D01*
X127231923Y-61594643D01*
X127219418Y-61518644D01*
X127100051Y-60966241D01*
X126933753Y-60429557D01*
X126722483Y-59910513D01*
X126468199Y-59411027D01*
X126172861Y-58933021D01*
X125838427Y-58478414D01*
X125466856Y-58049125D01*
X125060108Y-57647076D01*
X124620140Y-57274185D01*
X124148912Y-56932373D01*
X123648383Y-56623560D01*
X123120511Y-56349665D01*
X122567256Y-56112609D01*
X121990575Y-55914311D01*
X121392429Y-55756692D01*
X121325684Y-55741980D01*
X120729132Y-55636736D01*
X120114442Y-55573697D01*
X119491387Y-55552964D01*
X118869738Y-55574638D01*
X118259266Y-55638817D01*
X117857600Y-55706383D01*
X117231093Y-55853747D01*
X116621945Y-56047171D01*
X116032977Y-56285314D01*
X115467010Y-56566833D01*
X114926863Y-56890388D01*
X114415358Y-57254637D01*
X114149200Y-57470190D01*
X114001778Y-57601558D01*
X113834996Y-57760994D01*
X113658812Y-57938084D01*
X113483185Y-58122409D01*
X113318073Y-58303554D01*
X113173435Y-58471102D01*
X113074910Y-58593893D01*
X112732987Y-59081480D01*
X112437800Y-59588106D01*
X112189762Y-60112770D01*
X111989288Y-60654470D01*
X111836792Y-61212203D01*
X111732687Y-61784968D01*
X111722021Y-61866110D01*
X111701176Y-62083725D01*
X111687917Y-62333536D01*
X111682236Y-62600656D01*
X111451248Y-62600656D01*
X111472443Y-62070211D01*
X111543808Y-61493029D01*
X111663142Y-60931308D01*
X111830766Y-60384099D01*
X112047000Y-59850457D01*
X112312165Y-59329436D01*
X112626582Y-58820088D01*
X112864494Y-58485500D01*
X112982774Y-58337260D01*
X113131623Y-58165597D01*
X113302383Y-57979361D01*
X113486393Y-57787405D01*
X113674993Y-57598580D01*
X113859525Y-57421739D01*
X114031330Y-57265733D01*
X114179890Y-57140888D01*
X114666967Y-56784512D01*
X115188791Y-56460223D01*
X115738259Y-56171306D01*
X116308274Y-55921043D01*
X116891733Y-55712720D01*
X117481539Y-55549620D01*
X117743300Y-55492617D01*
X118004341Y-55443346D01*
X118242633Y-55405075D01*
X118472736Y-55376267D01*
X118709214Y-55355382D01*
X118966628Y-55340881D01*
X119259540Y-55331224D01*
X119273374Y-55330889D01*
X119626651Y-55326465D01*
X119944354Y-55331800D01*
G37*
X119944354Y-55331800D02*
X120240935Y-55347815D01*
X120530845Y-55375428D01*
X120828537Y-55415559D01*
X120977229Y-55439337D01*
X121604744Y-55568401D01*
X122216630Y-55742650D01*
X122810010Y-55960434D01*
X123382007Y-56220104D01*
X123929744Y-56520010D01*
X124450344Y-56858504D01*
X124940930Y-57233936D01*
X125398625Y-57644657D01*
X125820551Y-58089017D01*
X126025077Y-58333100D01*
X126308972Y-58717840D01*
X126575568Y-59139572D01*
X126818188Y-59585610D01*
X127030153Y-60043266D01*
X127204784Y-60499856D01*
X127265970Y-60690174D01*
X127404403Y-61234083D01*
X127496647Y-61793321D01*
X127542467Y-62361559D01*
X127541626Y-62932469D01*
X127493888Y-63499724D01*
X127399018Y-64056994D01*
X127392655Y-64086200D01*
X127245740Y-64636029D01*
X127050977Y-65173453D01*
X126810388Y-65695739D01*
X126525995Y-66200156D01*
X126199821Y-66683971D01*
X125833887Y-67144451D01*
X125430215Y-67578866D01*
X124990828Y-67984483D01*
X124517749Y-68358570D01*
X124012998Y-68698394D01*
X123950556Y-68736644D01*
X123393591Y-69046993D01*
X122821936Y-69311077D01*
X122232519Y-69529924D01*
X121622270Y-69704558D01*
X120988119Y-69836005D01*
X120423000Y-69915101D01*
X120275585Y-69927532D01*
X120088652Y-69937308D01*
X119873417Y-69944362D01*
X119641096Y-69948624D01*
X119402904Y-69950027D01*
X119170057Y-69948502D01*
X118953771Y-69943982D01*
X118765263Y-69936399D01*
X118619600Y-69926055D01*
X117996493Y-69843567D01*
X117388568Y-69717629D01*
X116797957Y-69550006D01*
X116226790Y-69342463D01*
X115677199Y-69096766D01*
X115151316Y-68814680D01*
X114651271Y-68497970D01*
X114179196Y-68148402D01*
X113737222Y-67767741D01*
X113327480Y-67357752D01*
X112952102Y-66920200D01*
X112613220Y-66456851D01*
X112312963Y-65969470D01*
X112053464Y-65459822D01*
X111836854Y-64929673D01*
X111665264Y-64380788D01*
X111599610Y-64111600D01*
X111538606Y-63808531D01*
X111494846Y-63520657D01*
X111466531Y-63230703D01*
X111451859Y-62921394D01*
X111448725Y-62663800D01*
X111451248Y-62600656D01*
X111682236Y-62600656D01*
X111684126Y-62870197D01*
X111693579Y-63127272D01*
X111710588Y-63356995D01*
X111722841Y-63463900D01*
X111824230Y-64035280D01*
X111973161Y-64591247D01*
X112168195Y-65129860D01*
X112407895Y-65649180D01*
X112690823Y-66147269D01*
X113015539Y-66622188D01*
X113380607Y-67071998D01*
X113784587Y-67494759D01*
X114226042Y-67888533D01*
X114703532Y-68251381D01*
X115215621Y-68581363D01*
X115724000Y-68858226D01*
X116071358Y-69023823D01*
X116409541Y-69167538D01*
X116746865Y-69291676D01*
X117091650Y-69398540D01*
X117452213Y-69490434D01*
X117836871Y-69569661D01*
X118253944Y-69638525D01*
X118711748Y-69699330D01*
X118797400Y-69709398D01*
X118885458Y-69715374D01*
X119015331Y-69718627D01*
X119178121Y-69719389D01*
X119364929Y-69717888D01*
X119566856Y-69714354D01*
X119775004Y-69709016D01*
X119980473Y-69702104D01*
X120174364Y-69693848D01*
X120347780Y-69684476D01*
X120491820Y-69674220D01*
X120597588Y-69663308D01*
X120600800Y-69662874D01*
X121252838Y-69549997D01*
X121881537Y-69392498D01*
X122488961Y-69189747D01*
X123077178Y-68941112D01*
X123270958Y-68847117D01*
X123710655Y-68610836D01*
X124117383Y-68357529D01*
X124502102Y-68079225D01*
X124875776Y-67767957D01*
X125249364Y-67415753D01*
X125275249Y-67389907D01*
X125558357Y-67096204D01*
X125804812Y-66817229D01*
X126022123Y-66542614D01*
X126217804Y-66261985D01*
X126399366Y-65964973D01*
X126574321Y-65641206D01*
X126647075Y-65495900D01*
X126880035Y-64965003D01*
X127063495Y-64423192D01*
X127197273Y-63871730D01*
X127281186Y-63311881D01*
X127315054Y-62744908D01*
X127298693Y-62172074D01*
X127231923Y-61594643D01*
X127219418Y-61518644D01*
X127100051Y-60966241D01*
X126933753Y-60429557D01*
X126722483Y-59910513D01*
X126468199Y-59411027D01*
X126172861Y-58933021D01*
X125838427Y-58478414D01*
X125466856Y-58049125D01*
X125060108Y-57647076D01*
X124620140Y-57274185D01*
X124148912Y-56932373D01*
X123648383Y-56623560D01*
X123120511Y-56349665D01*
X122567256Y-56112609D01*
X121990575Y-55914311D01*
X121392429Y-55756692D01*
X121325684Y-55741980D01*
X120729132Y-55636736D01*
X120114442Y-55573697D01*
X119491387Y-55552964D01*
X118869738Y-55574638D01*
X118259266Y-55638817D01*
X117857600Y-55706383D01*
X117231093Y-55853747D01*
X116621945Y-56047171D01*
X116032977Y-56285314D01*
X115467010Y-56566833D01*
X114926863Y-56890388D01*
X114415358Y-57254637D01*
X114149200Y-57470190D01*
X114001778Y-57601558D01*
X113834996Y-57760994D01*
X113658812Y-57938084D01*
X113483185Y-58122409D01*
X113318073Y-58303554D01*
X113173435Y-58471102D01*
X113074910Y-58593893D01*
X112732987Y-59081480D01*
X112437800Y-59588106D01*
X112189762Y-60112770D01*
X111989288Y-60654470D01*
X111836792Y-61212203D01*
X111732687Y-61784968D01*
X111722021Y-61866110D01*
X111701176Y-62083725D01*
X111687917Y-62333536D01*
X111682236Y-62600656D01*
X111451248Y-62600656D01*
X111472443Y-62070211D01*
X111543808Y-61493029D01*
X111663142Y-60931308D01*
X111830766Y-60384099D01*
X112047000Y-59850457D01*
X112312165Y-59329436D01*
X112626582Y-58820088D01*
X112864494Y-58485500D01*
X112982774Y-58337260D01*
X113131623Y-58165597D01*
X113302383Y-57979361D01*
X113486393Y-57787405D01*
X113674993Y-57598580D01*
X113859525Y-57421739D01*
X114031330Y-57265733D01*
X114179890Y-57140888D01*
X114666967Y-56784512D01*
X115188791Y-56460223D01*
X115738259Y-56171306D01*
X116308274Y-55921043D01*
X116891733Y-55712720D01*
X117481539Y-55549620D01*
X117743300Y-55492617D01*
X118004341Y-55443346D01*
X118242633Y-55405075D01*
X118472736Y-55376267D01*
X118709214Y-55355382D01*
X118966628Y-55340881D01*
X119259540Y-55331224D01*
X119273374Y-55330889D01*
X119626651Y-55326465D01*
X119944354Y-55331800D01*
G36*
X133774622Y-33883019D02*
G01*
X133865950Y-33894670D01*
X133986600Y-33914112D01*
X133986600Y-35298257D01*
X133586550Y-35297440D01*
X133326689Y-35304167D01*
X133106898Y-35327430D01*
X132918314Y-35370119D01*
X132752074Y-35435121D01*
X132599314Y-35525326D01*
X132451173Y-35643621D01*
X132410994Y-35680585D01*
X132301151Y-35793453D01*
X132217955Y-35904426D01*
X132144057Y-36036998D01*
X132136686Y-36051986D01*
X132097416Y-36133372D01*
X132063975Y-36206945D01*
X132035858Y-36277484D01*
X132012562Y-36349767D01*
X131993584Y-36428572D01*
X131978420Y-36518677D01*
X131966567Y-36624862D01*
X131957521Y-36751905D01*
X131950779Y-36904584D01*
X131945837Y-37087677D01*
X131942192Y-37305962D01*
X131939341Y-37564219D01*
X131936780Y-37867226D01*
X131936083Y-37955950D01*
X131925616Y-39295800D01*
X130311890Y-39295800D01*
X130295074Y-38095650D01*
X130291302Y-37795192D01*
X130287823Y-37457937D01*
X130284735Y-37097885D01*
X130282136Y-36729038D01*
X130280122Y-36365397D01*
X130278790Y-36020965D01*
X130278238Y-35709742D01*
X130278229Y-35669950D01*
X130278200Y-34444400D01*
X131929200Y-34444400D01*
X131929200Y-34705642D01*
X132151450Y-34491572D01*
X132331351Y-34326838D01*
X132495278Y-34197265D01*
X132655058Y-34095498D01*
X132822512Y-34014179D01*
X133009467Y-33945951D01*
X133047440Y-33934083D01*
X133202269Y-33899859D01*
X133387548Y-33879340D01*
X133584569Y-33873427D01*
X133774622Y-33883019D01*
G37*
X133774622Y-33883019D02*
X133865950Y-33894670D01*
X133986600Y-33914112D01*
X133986600Y-35298257D01*
X133586550Y-35297440D01*
X133326689Y-35304167D01*
X133106898Y-35327430D01*
X132918314Y-35370119D01*
X132752074Y-35435121D01*
X132599314Y-35525326D01*
X132451173Y-35643621D01*
X132410994Y-35680585D01*
X132301151Y-35793453D01*
X132217955Y-35904426D01*
X132144057Y-36036998D01*
X132136686Y-36051986D01*
X132097416Y-36133372D01*
X132063975Y-36206945D01*
X132035858Y-36277484D01*
X132012562Y-36349767D01*
X131993584Y-36428572D01*
X131978420Y-36518677D01*
X131966567Y-36624862D01*
X131957521Y-36751905D01*
X131950779Y-36904584D01*
X131945837Y-37087677D01*
X131942192Y-37305962D01*
X131939341Y-37564219D01*
X131936780Y-37867226D01*
X131936083Y-37955950D01*
X131925616Y-39295800D01*
X130311890Y-39295800D01*
X130295074Y-38095650D01*
X130291302Y-37795192D01*
X130287823Y-37457937D01*
X130284735Y-37097885D01*
X130282136Y-36729038D01*
X130280122Y-36365397D01*
X130278790Y-36020965D01*
X130278238Y-35709742D01*
X130278229Y-35669950D01*
X130278200Y-34444400D01*
X131929200Y-34444400D01*
X131929200Y-34705642D01*
X132151450Y-34491572D01*
X132331351Y-34326838D01*
X132495278Y-34197265D01*
X132655058Y-34095498D01*
X132822512Y-34014179D01*
X133009467Y-33945951D01*
X133047440Y-33934083D01*
X133202269Y-33899859D01*
X133387548Y-33879340D01*
X133584569Y-33873427D01*
X133774622Y-33883019D01*
G36*
X114484571Y-33934283D02*
G01*
X114842268Y-33991859D01*
X115163932Y-34082969D01*
X115448795Y-34207010D01*
X115696088Y-34363378D01*
X115905041Y-34551470D01*
X116074885Y-34770684D01*
X116204852Y-35020417D01*
X116294171Y-35300065D01*
X116307936Y-35363759D01*
X116324513Y-35452377D01*
X116338708Y-35542171D01*
X116350636Y-35637366D01*
X116360413Y-35742185D01*
X116368153Y-35860855D01*
X116373971Y-35997599D01*
X116377981Y-36156642D01*
X116380298Y-36342209D01*
X116381037Y-36558525D01*
X116380313Y-36809814D01*
X116378240Y-37100301D01*
X116374934Y-37434210D01*
X116371742Y-37713211D01*
X116352902Y-39295800D01*
X114766204Y-39295800D01*
X114748603Y-37879750D01*
X114744835Y-37608781D01*
X114740434Y-37347229D01*
X114735544Y-37100586D01*
X114730309Y-36874347D01*
X114724871Y-36674007D01*
X114719374Y-36505058D01*
X114713962Y-36372995D01*
X114708778Y-36283313D01*
X114706162Y-36254756D01*
X114661511Y-35993374D01*
X114593315Y-35775832D01*
X114498873Y-35599643D01*
X114375482Y-35462320D01*
X114220441Y-35361377D01*
X114031048Y-35294325D01*
X113804601Y-35258679D01*
X113615800Y-35251061D01*
X113389907Y-35258553D01*
X113210549Y-35281991D01*
X113158600Y-35293950D01*
X112900726Y-35384997D01*
X112675759Y-35512822D01*
X112485948Y-35675131D01*
X112333539Y-35869630D01*
X112220780Y-36094026D01*
X112155412Y-36317906D01*
X112146804Y-36374423D01*
X112139065Y-36457661D01*
X112132087Y-36570804D01*
X112125763Y-36717037D01*
X112119985Y-36899543D01*
X112114646Y-37121506D01*
X112109638Y-37386111D01*
X112104854Y-37696541D01*
X112102221Y-37892450D01*
X112084177Y-39295800D01*
X110466200Y-39295800D01*
X110466200Y-34444400D01*
X112117200Y-34444400D01*
X112117200Y-34805824D01*
X112288543Y-34645540D01*
X112573497Y-34412981D01*
X112883481Y-34223622D01*
X113215093Y-34078564D01*
X113564931Y-33978909D01*
X113929592Y-33925760D01*
X114305675Y-33920219D01*
X114484571Y-33934283D01*
G37*
X114484571Y-33934283D02*
X114842268Y-33991859D01*
X115163932Y-34082969D01*
X115448795Y-34207010D01*
X115696088Y-34363378D01*
X115905041Y-34551470D01*
X116074885Y-34770684D01*
X116204852Y-35020417D01*
X116294171Y-35300065D01*
X116307936Y-35363759D01*
X116324513Y-35452377D01*
X116338708Y-35542171D01*
X116350636Y-35637366D01*
X116360413Y-35742185D01*
X116368153Y-35860855D01*
X116373971Y-35997599D01*
X116377981Y-36156642D01*
X116380298Y-36342209D01*
X116381037Y-36558525D01*
X116380313Y-36809814D01*
X116378240Y-37100301D01*
X116374934Y-37434210D01*
X116371742Y-37713211D01*
X116352902Y-39295800D01*
X114766204Y-39295800D01*
X114748603Y-37879750D01*
X114744835Y-37608781D01*
X114740434Y-37347229D01*
X114735544Y-37100586D01*
X114730309Y-36874347D01*
X114724871Y-36674007D01*
X114719374Y-36505058D01*
X114713962Y-36372995D01*
X114708778Y-36283313D01*
X114706162Y-36254756D01*
X114661511Y-35993374D01*
X114593315Y-35775832D01*
X114498873Y-35599643D01*
X114375482Y-35462320D01*
X114220441Y-35361377D01*
X114031048Y-35294325D01*
X113804601Y-35258679D01*
X113615800Y-35251061D01*
X113389907Y-35258553D01*
X113210549Y-35281991D01*
X113158600Y-35293950D01*
X112900726Y-35384997D01*
X112675759Y-35512822D01*
X112485948Y-35675131D01*
X112333539Y-35869630D01*
X112220780Y-36094026D01*
X112155412Y-36317906D01*
X112146804Y-36374423D01*
X112139065Y-36457661D01*
X112132087Y-36570804D01*
X112125763Y-36717037D01*
X112119985Y-36899543D01*
X112114646Y-37121506D01*
X112109638Y-37386111D01*
X112104854Y-37696541D01*
X112102221Y-37892450D01*
X112084177Y-39295800D01*
X110466200Y-39295800D01*
X110466200Y-34444400D01*
X112117200Y-34444400D01*
X112117200Y-34805824D01*
X112288543Y-34645540D01*
X112573497Y-34412981D01*
X112883481Y-34223622D01*
X113215093Y-34078564D01*
X113564931Y-33978909D01*
X113929592Y-33925760D01*
X114305675Y-33920219D01*
X114484571Y-33934283D01*
G36*
X103404970Y-34793650D02*
G01*
X103404739Y-35153752D01*
X103404079Y-35526948D01*
X103403027Y-35906040D01*
X103401620Y-36283829D01*
X103399894Y-36653117D01*
X103397887Y-37006706D01*
X103395635Y-37337397D01*
X103393175Y-37637991D01*
X103390543Y-37901291D01*
X103388125Y-38095650D01*
X103371309Y-39295800D01*
X101787687Y-39295800D01*
X101770843Y-38110528D01*
X101768100Y-37889261D01*
X101765496Y-37624286D01*
X101763067Y-37322698D01*
X101760849Y-36991588D01*
X101758878Y-36638049D01*
X101757191Y-36269173D01*
X101755824Y-35892055D01*
X101754812Y-35513785D01*
X101754192Y-35141458D01*
X101754000Y-34808528D01*
X101754000Y-32691800D01*
X103405000Y-32691800D01*
X103404970Y-34793650D01*
G37*
X103404970Y-34793650D02*
X103404739Y-35153752D01*
X103404079Y-35526948D01*
X103403027Y-35906040D01*
X103401620Y-36283829D01*
X103399894Y-36653117D01*
X103397887Y-37006706D01*
X103395635Y-37337397D01*
X103393175Y-37637991D01*
X103390543Y-37901291D01*
X103388125Y-38095650D01*
X103371309Y-39295800D01*
X101787687Y-39295800D01*
X101770843Y-38110528D01*
X101768100Y-37889261D01*
X101765496Y-37624286D01*
X101763067Y-37322698D01*
X101760849Y-36991588D01*
X101758878Y-36638049D01*
X101757191Y-36269173D01*
X101755824Y-35892055D01*
X101754812Y-35513785D01*
X101754192Y-35141458D01*
X101754000Y-34808528D01*
X101754000Y-32691800D01*
X103405000Y-32691800D01*
X103404970Y-34793650D01*
G36*
X126924245Y-33866951D02*
G01*
X127356246Y-33896568D01*
X127750994Y-33958972D01*
X128110708Y-34054973D01*
X128437605Y-34185379D01*
X128733904Y-34350997D01*
X129001823Y-34552637D01*
X129129117Y-34670463D01*
X129349328Y-34924040D01*
X129534690Y-35213478D01*
X129684633Y-35537150D01*
X129798589Y-35893428D01*
X129875988Y-36280683D01*
X129916261Y-36697287D01*
X129922382Y-36939950D01*
X129922600Y-37111400D01*
X125445205Y-37111400D01*
X125462052Y-37254742D01*
X125484289Y-37368719D01*
X125524597Y-37508303D01*
X125576804Y-37654460D01*
X125634742Y-37788153D01*
X125635375Y-37789456D01*
X125686981Y-37865191D01*
X125769824Y-37954250D01*
X125870984Y-38044839D01*
X125977540Y-38125164D01*
X126055020Y-38172537D01*
X126234751Y-38253602D01*
X126419900Y-38304854D01*
X126626424Y-38329941D01*
X126761165Y-38333937D01*
X127045051Y-38315217D01*
X127297970Y-38256689D01*
X127521001Y-38157959D01*
X127715222Y-38018636D01*
X127769573Y-37967320D01*
X127849107Y-37883757D01*
X127903579Y-37813616D01*
X127946246Y-37736971D01*
X127988837Y-37637694D01*
X128009914Y-37592284D01*
X128033992Y-37580864D01*
X128079445Y-37598690D01*
X128099949Y-37609007D01*
X128169687Y-37649013D01*
X128225814Y-37688788D01*
X128228075Y-37690737D01*
X128262218Y-37714199D01*
X128333830Y-37758791D01*
X128436230Y-37820513D01*
X128562736Y-37895368D01*
X128706666Y-37979355D01*
X128811061Y-38039631D01*
X128960545Y-38126398D01*
X129094753Y-38205876D01*
X129207558Y-38274308D01*
X129292829Y-38327933D01*
X129344437Y-38362994D01*
X129357311Y-38374633D01*
X129344340Y-38405906D01*
X129299489Y-38461951D01*
X129230324Y-38535528D01*
X129144412Y-38619400D01*
X129049317Y-38706328D01*
X128952606Y-38789073D01*
X128861846Y-38860397D01*
X128814428Y-38894005D01*
X128475761Y-39090952D01*
X128108459Y-39247436D01*
X127715416Y-39362824D01*
X127299531Y-39436482D01*
X126863699Y-39467776D01*
X126410817Y-39456073D01*
X126291665Y-39446009D01*
X125887679Y-39386340D01*
X125507817Y-39288260D01*
X125155118Y-39153251D01*
X124832623Y-38982800D01*
X124543372Y-38778391D01*
X124290405Y-38541509D01*
X124181735Y-38415428D01*
X124040042Y-38217090D01*
X123909094Y-37993109D01*
X123797498Y-37760335D01*
X123713863Y-37535618D01*
X123690809Y-37454300D01*
X123622523Y-37095773D01*
X123595895Y-36728221D01*
X123610148Y-36360393D01*
X123664501Y-36001042D01*
X123666483Y-35993800D01*
X125498534Y-35993800D01*
X128097836Y-35993800D01*
X128080168Y-35911250D01*
X128008659Y-35675224D01*
X127902023Y-35475206D01*
X127758490Y-35308892D01*
X127576293Y-35173977D01*
X127471500Y-35118220D01*
X127311886Y-35051178D01*
X127157708Y-35007980D01*
X126990810Y-34984889D01*
X126793040Y-34978172D01*
X126790799Y-34978175D01*
X126508978Y-34998780D01*
X126256074Y-35059313D01*
X126033457Y-35159278D01*
X125842496Y-35298180D01*
X125803174Y-35335606D01*
X125697062Y-35465311D01*
X125606017Y-35620836D01*
X125540393Y-35782373D01*
X125515524Y-35885850D01*
X125498534Y-35993800D01*
X123666483Y-35993800D01*
X123758176Y-35658917D01*
X123876173Y-35371500D01*
X124054555Y-35059889D01*
X124269242Y-34783789D01*
X124520145Y-34543269D01*
X124807178Y-34338397D01*
X125130250Y-34169240D01*
X125489276Y-34035867D01*
X125662879Y-33987458D01*
X125912248Y-33931522D01*
X126154137Y-33893120D01*
X126403425Y-33870831D01*
X126674992Y-33863232D01*
X126924245Y-33866951D01*
G37*
X126924245Y-33866951D02*
X127356246Y-33896568D01*
X127750994Y-33958972D01*
X128110708Y-34054973D01*
X128437605Y-34185379D01*
X128733904Y-34350997D01*
X129001823Y-34552637D01*
X129129117Y-34670463D01*
X129349328Y-34924040D01*
X129534690Y-35213478D01*
X129684633Y-35537150D01*
X129798589Y-35893428D01*
X129875988Y-36280683D01*
X129916261Y-36697287D01*
X129922382Y-36939950D01*
X129922600Y-37111400D01*
X125445205Y-37111400D01*
X125462052Y-37254742D01*
X125484289Y-37368719D01*
X125524597Y-37508303D01*
X125576804Y-37654460D01*
X125634742Y-37788153D01*
X125635375Y-37789456D01*
X125686981Y-37865191D01*
X125769824Y-37954250D01*
X125870984Y-38044839D01*
X125977540Y-38125164D01*
X126055020Y-38172537D01*
X126234751Y-38253602D01*
X126419900Y-38304854D01*
X126626424Y-38329941D01*
X126761165Y-38333937D01*
X127045051Y-38315217D01*
X127297970Y-38256689D01*
X127521001Y-38157959D01*
X127715222Y-38018636D01*
X127769573Y-37967320D01*
X127849107Y-37883757D01*
X127903579Y-37813616D01*
X127946246Y-37736971D01*
X127988837Y-37637694D01*
X128009914Y-37592284D01*
X128033992Y-37580864D01*
X128079445Y-37598690D01*
X128099949Y-37609007D01*
X128169687Y-37649013D01*
X128225814Y-37688788D01*
X128228075Y-37690737D01*
X128262218Y-37714199D01*
X128333830Y-37758791D01*
X128436230Y-37820513D01*
X128562736Y-37895368D01*
X128706666Y-37979355D01*
X128811061Y-38039631D01*
X128960545Y-38126398D01*
X129094753Y-38205876D01*
X129207558Y-38274308D01*
X129292829Y-38327933D01*
X129344437Y-38362994D01*
X129357311Y-38374633D01*
X129344340Y-38405906D01*
X129299489Y-38461951D01*
X129230324Y-38535528D01*
X129144412Y-38619400D01*
X129049317Y-38706328D01*
X128952606Y-38789073D01*
X128861846Y-38860397D01*
X128814428Y-38894005D01*
X128475761Y-39090952D01*
X128108459Y-39247436D01*
X127715416Y-39362824D01*
X127299531Y-39436482D01*
X126863699Y-39467776D01*
X126410817Y-39456073D01*
X126291665Y-39446009D01*
X125887679Y-39386340D01*
X125507817Y-39288260D01*
X125155118Y-39153251D01*
X124832623Y-38982800D01*
X124543372Y-38778391D01*
X124290405Y-38541509D01*
X124181735Y-38415428D01*
X124040042Y-38217090D01*
X123909094Y-37993109D01*
X123797498Y-37760335D01*
X123713863Y-37535618D01*
X123690809Y-37454300D01*
X123622523Y-37095773D01*
X123595895Y-36728221D01*
X123610148Y-36360393D01*
X123664501Y-36001042D01*
X123666483Y-35993800D01*
X125498534Y-35993800D01*
X128097836Y-35993800D01*
X128080168Y-35911250D01*
X128008659Y-35675224D01*
X127902023Y-35475206D01*
X127758490Y-35308892D01*
X127576293Y-35173977D01*
X127471500Y-35118220D01*
X127311886Y-35051178D01*
X127157708Y-35007980D01*
X126990810Y-34984889D01*
X126793040Y-34978172D01*
X126790799Y-34978175D01*
X126508978Y-34998780D01*
X126256074Y-35059313D01*
X126033457Y-35159278D01*
X125842496Y-35298180D01*
X125803174Y-35335606D01*
X125697062Y-35465311D01*
X125606017Y-35620836D01*
X125540393Y-35782373D01*
X125515524Y-35885850D01*
X125498534Y-35993800D01*
X123666483Y-35993800D01*
X123758176Y-35658917D01*
X123876173Y-35371500D01*
X124054555Y-35059889D01*
X124269242Y-34783789D01*
X124520145Y-34543269D01*
X124807178Y-34338397D01*
X125130250Y-34169240D01*
X125489276Y-34035867D01*
X125662879Y-33987458D01*
X125912248Y-33931522D01*
X126154137Y-33893120D01*
X126403425Y-33870831D01*
X126674992Y-33863232D01*
X126924245Y-33866951D01*
G36*
X123193299Y-32301416D02*
G01*
X123197168Y-32350409D01*
X123200654Y-32433795D01*
X123203769Y-32552989D01*
X123206524Y-32709408D01*
X123208930Y-32904468D01*
X123210999Y-33139584D01*
X123212741Y-33416172D01*
X123214169Y-33735649D01*
X123215293Y-34099430D01*
X123216124Y-34508931D01*
X123216675Y-34965568D01*
X123216956Y-35470757D01*
X123217000Y-35790600D01*
X123217000Y-39295800D01*
X121591400Y-39295800D01*
X121591400Y-38807288D01*
X121495157Y-38894238D01*
X121251308Y-39082314D01*
X120977066Y-39232774D01*
X120670506Y-39346426D01*
X120329703Y-39424077D01*
X120181700Y-39445443D01*
X120034094Y-39458573D01*
X119859371Y-39466506D01*
X119676625Y-39469002D01*
X119504949Y-39465815D01*
X119363436Y-39456703D01*
X119356200Y-39455949D01*
X118956527Y-39391117D01*
X118583057Y-39285753D01*
X118237769Y-39141151D01*
X117922638Y-38958608D01*
X117639644Y-38739417D01*
X117390763Y-38484873D01*
X117177972Y-38196273D01*
X117030916Y-37933300D01*
X116948061Y-37755037D01*
X116885016Y-37595642D01*
X116839312Y-37443132D01*
X116808476Y-37285529D01*
X116790038Y-37110853D01*
X116781528Y-36907122D01*
X116780467Y-36755800D01*
X118539517Y-36755800D01*
X118548719Y-36965011D01*
X118577567Y-37150543D01*
X118630474Y-37328138D01*
X118711856Y-37513540D01*
X118795948Y-37670200D01*
X118891751Y-37796549D01*
X119028160Y-37917563D01*
X119194997Y-38026523D01*
X119382088Y-38116711D01*
X119564523Y-38177637D01*
X119715486Y-38205919D01*
X119896965Y-38222674D01*
X120090716Y-38227642D01*
X120278496Y-38220562D01*
X120442062Y-38201176D01*
X120492715Y-38190850D01*
X120676723Y-38132722D01*
X120860405Y-38048600D01*
X121024571Y-37948134D01*
X121109346Y-37880784D01*
X121216746Y-37764385D01*
X121322407Y-37614864D01*
X121415841Y-37449143D01*
X121486558Y-37284139D01*
X121495267Y-37258305D01*
X121527764Y-37122627D01*
X121550722Y-36952284D01*
X121559521Y-36828353D01*
X121554545Y-36540780D01*
X121510165Y-36283364D01*
X121425285Y-36052894D01*
X121298806Y-35846158D01*
X121174827Y-35703583D01*
X120978015Y-35538607D01*
X120755931Y-35415135D01*
X120506428Y-35332367D01*
X120227356Y-35289500D01*
X120045909Y-35282600D01*
X119755304Y-35300739D01*
X119496644Y-35356124D01*
X119265828Y-35450208D01*
X119058752Y-35584442D01*
X118964743Y-35665282D01*
X118798356Y-35851968D01*
X118673928Y-36062582D01*
X118590445Y-36299725D01*
X118546893Y-36565998D01*
X118539517Y-36755800D01*
X116780467Y-36755800D01*
X116780199Y-36717700D01*
X116781264Y-36543150D01*
X116784001Y-36408403D01*
X116789449Y-36302465D01*
X116798645Y-36214341D01*
X116812628Y-36133039D01*
X116832436Y-36047565D01*
X116849696Y-35981696D01*
X116968198Y-35632640D01*
X117127465Y-35313218D01*
X117326162Y-35024633D01*
X117562955Y-34768088D01*
X117836510Y-34544787D01*
X118145493Y-34355932D01*
X118488568Y-34202726D01*
X118864403Y-34086373D01*
X118981964Y-34059129D01*
X119147191Y-34032019D01*
X119346278Y-34012631D01*
X119566113Y-34001079D01*
X119793585Y-33997477D01*
X120015583Y-34001940D01*
X120218997Y-34014582D01*
X120390716Y-34035518D01*
X120448000Y-34046328D01*
X120767281Y-34135692D01*
X121057084Y-34258983D01*
X121312475Y-34413827D01*
X121461988Y-34534143D01*
X121566000Y-34628111D01*
X121566000Y-33659955D01*
X121566267Y-33443825D01*
X121567028Y-33244492D01*
X121568223Y-33067463D01*
X121569793Y-32918248D01*
X121571676Y-32802353D01*
X121573813Y-32725287D01*
X121576144Y-32692558D01*
X121576563Y-32691799D01*
X121602820Y-32685683D01*
X121672332Y-32668340D01*
X121779173Y-32641280D01*
X121917422Y-32606011D01*
X122081154Y-32564043D01*
X122264446Y-32516886D01*
X122374099Y-32488599D01*
X122566756Y-32439073D01*
X122744067Y-32393909D01*
X122899937Y-32354629D01*
X123028271Y-32322750D01*
X123122975Y-32299794D01*
X123177952Y-32287281D01*
X123189036Y-32285400D01*
X123193299Y-32301416D01*
G37*
X123193299Y-32301416D02*
X123197168Y-32350409D01*
X123200654Y-32433795D01*
X123203769Y-32552989D01*
X123206524Y-32709408D01*
X123208930Y-32904468D01*
X123210999Y-33139584D01*
X123212741Y-33416172D01*
X123214169Y-33735649D01*
X123215293Y-34099430D01*
X123216124Y-34508931D01*
X123216675Y-34965568D01*
X123216956Y-35470757D01*
X123217000Y-35790600D01*
X123217000Y-39295800D01*
X121591400Y-39295800D01*
X121591400Y-38807288D01*
X121495157Y-38894238D01*
X121251308Y-39082314D01*
X120977066Y-39232774D01*
X120670506Y-39346426D01*
X120329703Y-39424077D01*
X120181700Y-39445443D01*
X120034094Y-39458573D01*
X119859371Y-39466506D01*
X119676625Y-39469002D01*
X119504949Y-39465815D01*
X119363436Y-39456703D01*
X119356200Y-39455949D01*
X118956527Y-39391117D01*
X118583057Y-39285753D01*
X118237769Y-39141151D01*
X117922638Y-38958608D01*
X117639644Y-38739417D01*
X117390763Y-38484873D01*
X117177972Y-38196273D01*
X117030916Y-37933300D01*
X116948061Y-37755037D01*
X116885016Y-37595642D01*
X116839312Y-37443132D01*
X116808476Y-37285529D01*
X116790038Y-37110853D01*
X116781528Y-36907122D01*
X116780467Y-36755800D01*
X118539517Y-36755800D01*
X118548719Y-36965011D01*
X118577567Y-37150543D01*
X118630474Y-37328138D01*
X118711856Y-37513540D01*
X118795948Y-37670200D01*
X118891751Y-37796549D01*
X119028160Y-37917563D01*
X119194997Y-38026523D01*
X119382088Y-38116711D01*
X119564523Y-38177637D01*
X119715486Y-38205919D01*
X119896965Y-38222674D01*
X120090716Y-38227642D01*
X120278496Y-38220562D01*
X120442062Y-38201176D01*
X120492715Y-38190850D01*
X120676723Y-38132722D01*
X120860405Y-38048600D01*
X121024571Y-37948134D01*
X121109346Y-37880784D01*
X121216746Y-37764385D01*
X121322407Y-37614864D01*
X121415841Y-37449143D01*
X121486558Y-37284139D01*
X121495267Y-37258305D01*
X121527764Y-37122627D01*
X121550722Y-36952284D01*
X121559521Y-36828353D01*
X121554545Y-36540780D01*
X121510165Y-36283364D01*
X121425285Y-36052894D01*
X121298806Y-35846158D01*
X121174827Y-35703583D01*
X120978015Y-35538607D01*
X120755931Y-35415135D01*
X120506428Y-35332367D01*
X120227356Y-35289500D01*
X120045909Y-35282600D01*
X119755304Y-35300739D01*
X119496644Y-35356124D01*
X119265828Y-35450208D01*
X119058752Y-35584442D01*
X118964743Y-35665282D01*
X118798356Y-35851968D01*
X118673928Y-36062582D01*
X118590445Y-36299725D01*
X118546893Y-36565998D01*
X118539517Y-36755800D01*
X116780467Y-36755800D01*
X116780199Y-36717700D01*
X116781264Y-36543150D01*
X116784001Y-36408403D01*
X116789449Y-36302465D01*
X116798645Y-36214341D01*
X116812628Y-36133039D01*
X116832436Y-36047565D01*
X116849696Y-35981696D01*
X116968198Y-35632640D01*
X117127465Y-35313218D01*
X117326162Y-35024633D01*
X117562955Y-34768088D01*
X117836510Y-34544787D01*
X118145493Y-34355932D01*
X118488568Y-34202726D01*
X118864403Y-34086373D01*
X118981964Y-34059129D01*
X119147191Y-34032019D01*
X119346278Y-34012631D01*
X119566113Y-34001079D01*
X119793585Y-33997477D01*
X120015583Y-34001940D01*
X120218997Y-34014582D01*
X120390716Y-34035518D01*
X120448000Y-34046328D01*
X120767281Y-34135692D01*
X121057084Y-34258983D01*
X121312475Y-34413827D01*
X121461988Y-34534143D01*
X121566000Y-34628111D01*
X121566000Y-33659955D01*
X121566267Y-33443825D01*
X121567028Y-33244492D01*
X121568223Y-33067463D01*
X121569793Y-32918248D01*
X121571676Y-32802353D01*
X121573813Y-32725287D01*
X121576144Y-32692558D01*
X121576563Y-32691799D01*
X121602820Y-32685683D01*
X121672332Y-32668340D01*
X121779173Y-32641280D01*
X121917422Y-32606011D01*
X122081154Y-32564043D01*
X122264446Y-32516886D01*
X122374099Y-32488599D01*
X122566756Y-32439073D01*
X122744067Y-32393909D01*
X122899937Y-32354629D01*
X123028271Y-32322750D01*
X123122975Y-32299794D01*
X123177952Y-32287281D01*
X123189036Y-32285400D01*
X123193299Y-32301416D01*
G36*
X107253931Y-33877070D02*
G01*
X107482848Y-33891363D01*
X107683113Y-33913127D01*
X107793176Y-33931523D01*
X108127727Y-34013441D01*
X108440462Y-34119563D01*
X108722055Y-34246285D01*
X108942200Y-34375671D01*
X109215946Y-34589826D01*
X109453427Y-34838854D01*
X109654040Y-35121456D01*
X109817185Y-35436329D01*
X109942263Y-35782174D01*
X110028671Y-36157690D01*
X110075810Y-36561576D01*
X110085128Y-36851050D01*
X110085200Y-37111400D01*
X105614199Y-37111400D01*
X105629411Y-37219350D01*
X105686046Y-37486341D01*
X105776168Y-37715648D01*
X105901182Y-37908969D01*
X106062490Y-38068004D01*
X106261493Y-38194453D01*
X106499596Y-38290016D01*
X106517584Y-38295539D01*
X106643627Y-38323314D01*
X106797502Y-38337403D01*
X106935600Y-38339801D01*
X107180719Y-38326132D01*
X107394471Y-38285780D01*
X107590468Y-38215677D01*
X107679344Y-38172099D01*
X107773200Y-38111782D01*
X107873450Y-38030419D01*
X107970115Y-37938176D01*
X108053219Y-37845221D01*
X108112784Y-37761723D01*
X108137608Y-37705085D01*
X108159716Y-37624880D01*
X108188103Y-37588120D01*
X108232816Y-37591572D01*
X108303902Y-37632000D01*
X108323611Y-37645219D01*
X108380407Y-37681605D01*
X108473411Y-37738605D01*
X108594782Y-37811528D01*
X108736679Y-37895685D01*
X108891260Y-37986386D01*
X108993000Y-38045572D01*
X109143381Y-38132865D01*
X109278676Y-38211625D01*
X109392842Y-38278316D01*
X109479833Y-38329400D01*
X109533607Y-38361341D01*
X109548600Y-38370690D01*
X109538446Y-38393110D01*
X109497819Y-38441693D01*
X109434314Y-38508964D01*
X109355527Y-38587449D01*
X109269053Y-38669672D01*
X109182488Y-38748161D01*
X109103426Y-38815440D01*
X109069200Y-38842452D01*
X108835182Y-38996960D01*
X108562229Y-39136428D01*
X108261075Y-39256471D01*
X107942452Y-39352708D01*
X107678848Y-39410213D01*
X107574844Y-39424356D01*
X107433758Y-39437199D01*
X107268182Y-39448222D01*
X107090703Y-39456907D01*
X106913912Y-39462734D01*
X106750398Y-39465183D01*
X106612749Y-39463735D01*
X106516500Y-39458183D01*
X106083131Y-39393471D01*
X105685480Y-39292942D01*
X105323657Y-39156662D01*
X104997772Y-38984700D01*
X104707937Y-38777126D01*
X104454262Y-38534006D01*
X104236859Y-38255411D01*
X104055837Y-37941408D01*
X104053629Y-37936900D01*
X103992882Y-37803873D01*
X103935524Y-37662964D01*
X103889006Y-37533289D01*
X103865557Y-37454300D01*
X103797783Y-37097871D01*
X103770945Y-36732179D01*
X103784216Y-36365982D01*
X103836769Y-36008038D01*
X103840569Y-35993800D01*
X105666870Y-35993800D01*
X108262892Y-35993800D01*
X108245968Y-35885850D01*
X108204865Y-35736351D01*
X108131796Y-35577854D01*
X108036947Y-35429709D01*
X107956225Y-35335606D01*
X107772973Y-35188029D01*
X107557701Y-35079038D01*
X107312156Y-35009267D01*
X107038085Y-34979351D01*
X106971413Y-34978175D01*
X106695614Y-34997779D01*
X106446450Y-35056249D01*
X106226568Y-35151669D01*
X106038617Y-35282120D01*
X105885245Y-35445685D01*
X105769099Y-35640446D01*
X105692829Y-35864485D01*
X105682862Y-35911250D01*
X105666870Y-35993800D01*
X103840569Y-35993800D01*
X103927779Y-35667104D01*
X104056420Y-35351937D01*
X104065638Y-35333400D01*
X104244650Y-35032604D01*
X104462521Y-34763995D01*
X104718267Y-34528244D01*
X105010905Y-34326022D01*
X105339451Y-34158000D01*
X105702921Y-34024851D01*
X106100330Y-33927245D01*
X106135500Y-33920636D01*
X106312276Y-33896299D01*
X106525534Y-33879860D01*
X106762247Y-33871232D01*
X107009388Y-33870331D01*
X107253931Y-33877070D01*
G37*
X107253931Y-33877070D02*
X107482848Y-33891363D01*
X107683113Y-33913127D01*
X107793176Y-33931523D01*
X108127727Y-34013441D01*
X108440462Y-34119563D01*
X108722055Y-34246285D01*
X108942200Y-34375671D01*
X109215946Y-34589826D01*
X109453427Y-34838854D01*
X109654040Y-35121456D01*
X109817185Y-35436329D01*
X109942263Y-35782174D01*
X110028671Y-36157690D01*
X110075810Y-36561576D01*
X110085128Y-36851050D01*
X110085200Y-37111400D01*
X105614199Y-37111400D01*
X105629411Y-37219350D01*
X105686046Y-37486341D01*
X105776168Y-37715648D01*
X105901182Y-37908969D01*
X106062490Y-38068004D01*
X106261493Y-38194453D01*
X106499596Y-38290016D01*
X106517584Y-38295539D01*
X106643627Y-38323314D01*
X106797502Y-38337403D01*
X106935600Y-38339801D01*
X107180719Y-38326132D01*
X107394471Y-38285780D01*
X107590468Y-38215677D01*
X107679344Y-38172099D01*
X107773200Y-38111782D01*
X107873450Y-38030419D01*
X107970115Y-37938176D01*
X108053219Y-37845221D01*
X108112784Y-37761723D01*
X108137608Y-37705085D01*
X108159716Y-37624880D01*
X108188103Y-37588120D01*
X108232816Y-37591572D01*
X108303902Y-37632000D01*
X108323611Y-37645219D01*
X108380407Y-37681605D01*
X108473411Y-37738605D01*
X108594782Y-37811528D01*
X108736679Y-37895685D01*
X108891260Y-37986386D01*
X108993000Y-38045572D01*
X109143381Y-38132865D01*
X109278676Y-38211625D01*
X109392842Y-38278316D01*
X109479833Y-38329400D01*
X109533607Y-38361341D01*
X109548600Y-38370690D01*
X109538446Y-38393110D01*
X109497819Y-38441693D01*
X109434314Y-38508964D01*
X109355527Y-38587449D01*
X109269053Y-38669672D01*
X109182488Y-38748161D01*
X109103426Y-38815440D01*
X109069200Y-38842452D01*
X108835182Y-38996960D01*
X108562229Y-39136428D01*
X108261075Y-39256471D01*
X107942452Y-39352708D01*
X107678848Y-39410213D01*
X107574844Y-39424356D01*
X107433758Y-39437199D01*
X107268182Y-39448222D01*
X107090703Y-39456907D01*
X106913912Y-39462734D01*
X106750398Y-39465183D01*
X106612749Y-39463735D01*
X106516500Y-39458183D01*
X106083131Y-39393471D01*
X105685480Y-39292942D01*
X105323657Y-39156662D01*
X104997772Y-38984700D01*
X104707937Y-38777126D01*
X104454262Y-38534006D01*
X104236859Y-38255411D01*
X104055837Y-37941408D01*
X104053629Y-37936900D01*
X103992882Y-37803873D01*
X103935524Y-37662964D01*
X103889006Y-37533289D01*
X103865557Y-37454300D01*
X103797783Y-37097871D01*
X103770945Y-36732179D01*
X103784216Y-36365982D01*
X103836769Y-36008038D01*
X103840569Y-35993800D01*
X105666870Y-35993800D01*
X108262892Y-35993800D01*
X108245968Y-35885850D01*
X108204865Y-35736351D01*
X108131796Y-35577854D01*
X108036947Y-35429709D01*
X107956225Y-35335606D01*
X107772973Y-35188029D01*
X107557701Y-35079038D01*
X107312156Y-35009267D01*
X107038085Y-34979351D01*
X106971413Y-34978175D01*
X106695614Y-34997779D01*
X106446450Y-35056249D01*
X106226568Y-35151669D01*
X106038617Y-35282120D01*
X105885245Y-35445685D01*
X105769099Y-35640446D01*
X105692829Y-35864485D01*
X105682862Y-35911250D01*
X105666870Y-35993800D01*
X103840569Y-35993800D01*
X103927779Y-35667104D01*
X104056420Y-35351937D01*
X104065638Y-35333400D01*
X104244650Y-35032604D01*
X104462521Y-34763995D01*
X104718267Y-34528244D01*
X105010905Y-34326022D01*
X105339451Y-34158000D01*
X105702921Y-34024851D01*
X106100330Y-33927245D01*
X106135500Y-33920636D01*
X106312276Y-33896299D01*
X106525534Y-33879860D01*
X106762247Y-33871232D01*
X107009388Y-33870331D01*
X107253931Y-33877070D01*
G36*
X94981458Y-32291478D02*
G01*
X95054586Y-32308647D01*
X95164167Y-32335307D01*
X95303832Y-32369856D01*
X95467213Y-32410694D01*
X95647942Y-32456222D01*
X95839650Y-32504838D01*
X96035970Y-32554942D01*
X96230532Y-32604933D01*
X96416970Y-32653212D01*
X96477150Y-32668894D01*
X96572400Y-32693758D01*
X96572400Y-34626517D01*
X96693050Y-34520205D01*
X96932970Y-34342386D01*
X97208270Y-34200032D01*
X97517527Y-34093593D01*
X97859317Y-34023516D01*
X98232219Y-33990249D01*
X98385240Y-33987349D01*
X98808577Y-34008444D01*
X99207419Y-34072683D01*
X99585305Y-34180847D01*
X99937900Y-34329813D01*
X100258001Y-34513812D01*
X100538983Y-34730192D01*
X100780654Y-34978695D01*
X100982820Y-35259060D01*
X101145288Y-35571030D01*
X101267867Y-35914344D01*
X101336769Y-36209700D01*
X101354757Y-36325223D01*
X101365646Y-36444543D01*
X101370051Y-36581069D01*
X101368589Y-36748213D01*
X101365937Y-36844700D01*
X101355237Y-37066942D01*
X101336545Y-37252810D01*
X101306594Y-37416512D01*
X101262116Y-37572253D01*
X101199843Y-37734239D01*
X101121961Y-37905313D01*
X100939871Y-38230957D01*
X100723219Y-38519370D01*
X100472005Y-38770553D01*
X100186230Y-38984505D01*
X99865892Y-39161228D01*
X99510991Y-39300721D01*
X99121527Y-39402985D01*
X99085122Y-39410296D01*
X98951844Y-39430066D01*
X98783238Y-39445651D01*
X98593851Y-39456594D01*
X98398230Y-39462439D01*
X98210922Y-39462729D01*
X98046475Y-39457007D01*
X97931300Y-39446511D01*
X97575636Y-39377254D01*
X97251621Y-39270520D01*
X96960709Y-39126934D01*
X96704355Y-38947119D01*
X96643242Y-38894238D01*
X96547000Y-38807288D01*
X96547000Y-39295800D01*
X94921400Y-39295800D01*
X94921400Y-36752998D01*
X96575979Y-36752998D01*
X96586668Y-36951976D01*
X96613327Y-37136176D01*
X96646719Y-37263800D01*
X96756506Y-37519564D01*
X96898461Y-37736017D01*
X97072536Y-37913128D01*
X97278684Y-38050864D01*
X97516859Y-38149193D01*
X97787012Y-38208084D01*
X98073286Y-38227471D01*
X98258038Y-38223784D01*
X98410681Y-38209391D01*
X98549117Y-38182519D01*
X98563861Y-38178823D01*
X98765939Y-38111700D01*
X98955373Y-38019527D01*
X99122367Y-37908700D01*
X99257128Y-37785619D01*
X99342451Y-37670200D01*
X99447919Y-37469533D01*
X99521704Y-37288660D01*
X99568234Y-37111645D01*
X99591937Y-36922554D01*
X99597438Y-36752647D01*
X99579506Y-36467834D01*
X99523482Y-36214716D01*
X99428067Y-35989959D01*
X99291962Y-35790233D01*
X99173656Y-35665282D01*
X98981802Y-35513405D01*
X98771315Y-35401448D01*
X98536601Y-35327432D01*
X98272070Y-35289376D01*
X98094113Y-35282975D01*
X97797743Y-35303344D01*
X97527623Y-35364165D01*
X97286077Y-35463716D01*
X97075429Y-35600277D01*
X96898004Y-35772125D01*
X96756127Y-35977539D01*
X96652120Y-36214799D01*
X96605961Y-36385112D01*
X96582123Y-36557844D01*
X96575979Y-36752998D01*
X94921400Y-36752998D01*
X94921400Y-35790600D01*
X94921502Y-35270787D01*
X94921821Y-34799917D01*
X94922371Y-34376129D01*
X94923168Y-33997567D01*
X94924229Y-33662372D01*
X94925568Y-33368685D01*
X94927203Y-33114649D01*
X94929147Y-32898405D01*
X94931418Y-32718096D01*
X94934031Y-32571862D01*
X94937002Y-32457846D01*
X94940346Y-32374190D01*
X94944080Y-32319036D01*
X94948218Y-32290525D01*
X94951151Y-32285400D01*
X94981458Y-32291478D01*
G37*
X94981458Y-32291478D02*
X95054586Y-32308647D01*
X95164167Y-32335307D01*
X95303832Y-32369856D01*
X95467213Y-32410694D01*
X95647942Y-32456222D01*
X95839650Y-32504838D01*
X96035970Y-32554942D01*
X96230532Y-32604933D01*
X96416970Y-32653212D01*
X96477150Y-32668894D01*
X96572400Y-32693758D01*
X96572400Y-34626517D01*
X96693050Y-34520205D01*
X96932970Y-34342386D01*
X97208270Y-34200032D01*
X97517527Y-34093593D01*
X97859317Y-34023516D01*
X98232219Y-33990249D01*
X98385240Y-33987349D01*
X98808577Y-34008444D01*
X99207419Y-34072683D01*
X99585305Y-34180847D01*
X99937900Y-34329813D01*
X100258001Y-34513812D01*
X100538983Y-34730192D01*
X100780654Y-34978695D01*
X100982820Y-35259060D01*
X101145288Y-35571030D01*
X101267867Y-35914344D01*
X101336769Y-36209700D01*
X101354757Y-36325223D01*
X101365646Y-36444543D01*
X101370051Y-36581069D01*
X101368589Y-36748213D01*
X101365937Y-36844700D01*
X101355237Y-37066942D01*
X101336545Y-37252810D01*
X101306594Y-37416512D01*
X101262116Y-37572253D01*
X101199843Y-37734239D01*
X101121961Y-37905313D01*
X100939871Y-38230957D01*
X100723219Y-38519370D01*
X100472005Y-38770553D01*
X100186230Y-38984505D01*
X99865892Y-39161228D01*
X99510991Y-39300721D01*
X99121527Y-39402985D01*
X99085122Y-39410296D01*
X98951844Y-39430066D01*
X98783238Y-39445651D01*
X98593851Y-39456594D01*
X98398230Y-39462439D01*
X98210922Y-39462729D01*
X98046475Y-39457007D01*
X97931300Y-39446511D01*
X97575636Y-39377254D01*
X97251621Y-39270520D01*
X96960709Y-39126934D01*
X96704355Y-38947119D01*
X96643242Y-38894238D01*
X96547000Y-38807288D01*
X96547000Y-39295800D01*
X94921400Y-39295800D01*
X94921400Y-36752998D01*
X96575979Y-36752998D01*
X96586668Y-36951976D01*
X96613327Y-37136176D01*
X96646719Y-37263800D01*
X96756506Y-37519564D01*
X96898461Y-37736017D01*
X97072536Y-37913128D01*
X97278684Y-38050864D01*
X97516859Y-38149193D01*
X97787012Y-38208084D01*
X98073286Y-38227471D01*
X98258038Y-38223784D01*
X98410681Y-38209391D01*
X98549117Y-38182519D01*
X98563861Y-38178823D01*
X98765939Y-38111700D01*
X98955373Y-38019527D01*
X99122367Y-37908700D01*
X99257128Y-37785619D01*
X99342451Y-37670200D01*
X99447919Y-37469533D01*
X99521704Y-37288660D01*
X99568234Y-37111645D01*
X99591937Y-36922554D01*
X99597438Y-36752647D01*
X99579506Y-36467834D01*
X99523482Y-36214716D01*
X99428067Y-35989959D01*
X99291962Y-35790233D01*
X99173656Y-35665282D01*
X98981802Y-35513405D01*
X98771315Y-35401448D01*
X98536601Y-35327432D01*
X98272070Y-35289376D01*
X98094113Y-35282975D01*
X97797743Y-35303344D01*
X97527623Y-35364165D01*
X97286077Y-35463716D01*
X97075429Y-35600277D01*
X96898004Y-35772125D01*
X96756127Y-35977539D01*
X96652120Y-36214799D01*
X96605961Y-36385112D01*
X96582123Y-36557844D01*
X96575979Y-36752998D01*
X94921400Y-36752998D01*
X94921400Y-35790600D01*
X94921502Y-35270787D01*
X94921821Y-34799917D01*
X94922371Y-34376129D01*
X94923168Y-33997567D01*
X94924229Y-33662372D01*
X94925568Y-33368685D01*
X94927203Y-33114649D01*
X94929147Y-32898405D01*
X94931418Y-32718096D01*
X94934031Y-32571862D01*
X94937002Y-32457846D01*
X94940346Y-32374190D01*
X94944080Y-32319036D01*
X94948218Y-32290525D01*
X94951151Y-32285400D01*
X94981458Y-32291478D01*
G36*
X115070697Y-44976974D02*
G01*
X115289274Y-45001983D01*
X115470000Y-45037026D01*
X115568915Y-45063149D01*
X115661832Y-45091605D01*
X115752583Y-45124834D01*
X115844994Y-45165270D01*
X115942897Y-45215350D01*
X116050121Y-45277512D01*
X116170495Y-45354192D01*
X116307848Y-45447827D01*
X116466010Y-45560853D01*
X116648811Y-45695707D01*
X116860079Y-45854826D01*
X117103645Y-46040646D01*
X117375000Y-46249181D01*
X117534230Y-46371766D01*
X117731343Y-46523420D01*
X117963923Y-46702288D01*
X118229552Y-46906513D01*
X118525811Y-47134238D01*
X118850285Y-47383606D01*
X119200554Y-47652761D01*
X119574203Y-47939845D01*
X119968812Y-48243003D01*
X120381966Y-48560377D01*
X120811246Y-48890112D01*
X121254235Y-49230349D01*
X121708515Y-49579233D01*
X122171670Y-49934906D01*
X122641281Y-50295513D01*
X123114931Y-50659195D01*
X123590203Y-51024098D01*
X124064679Y-51388363D01*
X124535942Y-51750135D01*
X125001574Y-52107556D01*
X125459158Y-52458770D01*
X125906276Y-52801920D01*
X126340512Y-53135149D01*
X126506300Y-53262364D01*
X126849859Y-53526124D01*
X127156147Y-53761705D01*
X127428300Y-53971720D01*
X127669452Y-54158780D01*
X127882738Y-54325499D01*
X128071291Y-54474487D01*
X128238247Y-54608359D01*
X128386740Y-54729725D01*
X128519905Y-54841198D01*
X128640876Y-54945390D01*
X128752788Y-55044915D01*
X128858775Y-55142383D01*
X128961972Y-55240407D01*
X129065514Y-55341600D01*
X129172535Y-55448574D01*
X129286170Y-55563940D01*
X129365704Y-55645323D01*
X129891972Y-56220127D01*
X130374032Y-56819793D01*
X130811496Y-57443488D01*
X131203977Y-58090376D01*
X131551087Y-58759623D01*
X131852438Y-59450394D01*
X132107643Y-60161853D01*
X132316314Y-60893167D01*
X132478065Y-61643500D01*
X132592506Y-62412017D01*
X132618052Y-62651100D01*
X132640635Y-62967593D01*
X132651508Y-63320370D01*
X132651036Y-63696370D01*
X132639580Y-64082531D01*
X132617504Y-64465793D01*
X132585171Y-64833094D01*
X132549248Y-65127600D01*
X132421159Y-65856770D01*
X132244561Y-66574064D01*
X132020740Y-67277648D01*
X131750983Y-67965688D01*
X131436579Y-68636350D01*
X131078815Y-69287799D01*
X130678978Y-69918203D01*
X130238356Y-70525727D01*
X129758235Y-71108537D01*
X129239905Y-71664798D01*
X128684651Y-72192678D01*
X128093762Y-72690341D01*
X127468525Y-73155955D01*
X126810227Y-73587684D01*
X126467449Y-73791207D01*
X125751623Y-74173980D01*
X125015792Y-74512119D01*
X124258497Y-74806090D01*
X123478281Y-75056357D01*
X122673684Y-75263384D01*
X121843250Y-75427637D01*
X120985519Y-75549580D01*
X120931000Y-75555804D01*
X120798902Y-75567421D01*
X120624486Y-75577853D01*
X120416224Y-75586980D01*
X120182587Y-75594680D01*
X119932045Y-75600834D01*
X119673071Y-75605320D01*
X119414134Y-75608018D01*
X119163707Y-75608806D01*
X118930260Y-75607564D01*
X118722265Y-75604171D01*
X118548193Y-75598506D01*
X118429100Y-75591490D01*
X117567305Y-75499054D01*
X116724843Y-75360329D01*
X115902375Y-75175542D01*
X115100563Y-74944915D01*
X114320069Y-74668674D01*
X113561555Y-74347043D01*
X112825683Y-73980247D01*
X112113115Y-73568509D01*
X111723500Y-73317719D01*
X111332435Y-73047687D01*
X110970692Y-72778620D01*
X110626880Y-72501025D01*
X110289607Y-72205405D01*
X109947479Y-71882266D01*
X109676136Y-71611344D01*
X109168160Y-71063689D01*
X108706268Y-70502154D01*
X108286409Y-69921060D01*
X107904536Y-69314726D01*
X107556596Y-68677472D01*
X107491312Y-68547002D01*
X107185782Y-67875668D01*
X106931009Y-67203535D01*
X106726953Y-66530471D01*
X106573575Y-65856340D01*
X106470835Y-65181009D01*
X106450944Y-64989625D01*
X106438776Y-64833148D01*
X106433334Y-64685691D01*
X106434629Y-64530955D01*
X106442672Y-64352646D01*
X106451410Y-64217975D01*
X106462307Y-64071338D01*
X106473117Y-63941102D01*
X106483004Y-63836255D01*
X106491133Y-63765782D01*
X106495880Y-63740000D01*
X106498289Y-63709200D01*
X106491674Y-63705200D01*
X106470501Y-63721030D01*
X106412001Y-63767455D01*
X106318139Y-63842872D01*
X106190884Y-63945679D01*
X106032202Y-64074274D01*
X105844060Y-64227056D01*
X105628424Y-64402422D01*
X105387263Y-64598770D01*
X105122542Y-64814499D01*
X104836229Y-65048006D01*
X104530290Y-65297690D01*
X104206694Y-65561949D01*
X103867405Y-65839181D01*
X103514392Y-66127783D01*
X103149621Y-66426155D01*
X102913907Y-66619043D01*
X102539929Y-66925023D01*
X102174830Y-67223542D01*
X101820702Y-67512898D01*
X101479632Y-67791392D01*
X101153712Y-68057323D01*
X100845030Y-68308992D01*
X100555677Y-68544698D01*
X100287741Y-68762741D01*
X100043314Y-68961421D01*
X99824485Y-69139038D01*
X99633342Y-69293893D01*
X99471977Y-69424284D01*
X99342479Y-69528512D01*
X99246937Y-69604876D01*
X99187441Y-69651678D01*
X99170801Y-69664230D01*
X98885969Y-69844819D01*
X98567715Y-70004565D01*
X98231312Y-70137099D01*
X97892031Y-70236051D01*
X97708378Y-70274090D01*
X97520882Y-70296503D01*
X97305724Y-70305499D01*
X97079672Y-70301646D01*
X96859492Y-70285513D01*
X96661952Y-70257668D01*
X96559700Y-70235165D01*
X96243509Y-70127635D01*
X95954501Y-69979295D01*
X95695684Y-69793102D01*
X95470065Y-69572013D01*
X95280650Y-69318985D01*
X95130447Y-69036975D01*
X95022464Y-68728939D01*
X95020535Y-68721700D01*
X94991563Y-68572026D01*
X94972609Y-68390307D01*
X94964105Y-68193971D01*
X94964545Y-68158135D01*
X95201320Y-68158135D01*
X95210511Y-68365736D01*
X95232829Y-68564214D01*
X95267307Y-68736577D01*
X95283582Y-68792262D01*
X95400356Y-69069390D01*
X95559000Y-69320168D01*
X95755838Y-69540749D01*
X95987198Y-69727287D01*
X96249405Y-69875937D01*
X96366156Y-69925496D01*
X96677218Y-70018902D01*
X97005622Y-70068003D01*
X97345643Y-70073752D01*
X97691557Y-70037104D01*
X98037640Y-69959015D01*
X98378166Y-69840438D01*
X98707412Y-69682329D01*
X99019654Y-69485643D01*
X99024670Y-69482052D01*
X99062958Y-69452611D01*
X99138494Y-69392637D01*
X99249233Y-69303792D01*
X99393130Y-69187742D01*
X99568139Y-69046150D01*
X99772214Y-68880680D01*
X100003312Y-68692996D01*
X100259386Y-68484761D01*
X100538391Y-68257641D01*
X100838282Y-68013298D01*
X101157014Y-67753398D01*
X101492542Y-67479602D01*
X101842819Y-67193577D01*
X102205802Y-66896984D01*
X102579445Y-66591490D01*
X102905197Y-66324997D01*
X103289671Y-66010589D01*
X103662942Y-65705754D01*
X104023116Y-65412021D01*
X104368300Y-65130918D01*
X104696602Y-64863974D01*
X105006129Y-64612717D01*
X105294988Y-64378677D01*
X105561287Y-64163382D01*
X105803131Y-63968361D01*
X106018630Y-63795143D01*
X106205889Y-63645256D01*
X106363016Y-63520230D01*
X106488119Y-63421592D01*
X106579304Y-63350872D01*
X106634679Y-63309599D01*
X106652057Y-63298800D01*
X106692588Y-63302824D01*
X106721471Y-63319102D01*
X106739525Y-63353935D01*
X106747568Y-63413627D01*
X106746418Y-63504483D01*
X106736893Y-63632805D01*
X106719812Y-63804898D01*
X106718884Y-63813722D01*
X106681571Y-64304215D01*
X106676917Y-64760282D01*
X106704952Y-65186434D01*
X106730016Y-65381600D01*
X106861879Y-66091537D01*
X107042770Y-66788480D01*
X107272722Y-67472505D01*
X107551767Y-68143687D01*
X107879938Y-68802102D01*
X108257268Y-69447825D01*
X108683788Y-70080931D01*
X108842401Y-70296500D01*
X109016349Y-70523299D01*
X109183000Y-70730171D01*
X109352103Y-70928297D01*
X109533408Y-71128861D01*
X109736663Y-71343044D01*
X109902414Y-71512311D01*
X110420652Y-72009960D01*
X110950582Y-72465570D01*
X111499484Y-72884355D01*
X112074635Y-73271524D01*
X112683314Y-73632288D01*
X113332801Y-73971859D01*
X113349100Y-73979864D01*
X113649681Y-74124923D01*
X113919265Y-74249388D01*
X114170581Y-74358526D01*
X114416357Y-74457600D01*
X114669322Y-74551877D01*
X114942205Y-74646622D01*
X115040124Y-74679327D01*
X115778885Y-74901815D01*
X116528410Y-75082828D01*
X117295280Y-75223636D01*
X118086076Y-75325504D01*
X118645000Y-75373467D01*
X118755742Y-75378310D01*
X118908702Y-75380938D01*
X119095357Y-75381527D01*
X119307180Y-75380259D01*
X119535646Y-75377313D01*
X119772232Y-75372867D01*
X120008411Y-75367101D01*
X120235660Y-75360195D01*
X120445452Y-75352328D01*
X120629263Y-75343679D01*
X120778569Y-75334427D01*
X120867500Y-75326706D01*
X121698573Y-75216508D01*
X122502461Y-75065011D01*
X123282738Y-74871346D01*
X124042976Y-74634644D01*
X124664800Y-74403483D01*
X125394231Y-74086531D01*
X126097067Y-73730327D01*
X126771685Y-73336535D01*
X127416462Y-72906818D01*
X128029776Y-72442840D01*
X128610004Y-71946263D01*
X129155523Y-71418752D01*
X129664710Y-70861969D01*
X130135943Y-70277579D01*
X130567598Y-69667245D01*
X130958054Y-69032631D01*
X131305688Y-68375399D01*
X131608876Y-67697213D01*
X131855076Y-67032600D01*
X132037756Y-66439540D01*
X132181988Y-65864999D01*
X132289771Y-65296762D01*
X132363106Y-64722616D01*
X132403995Y-64130347D01*
X132414724Y-63616300D01*
X132394908Y-62901000D01*
X132332888Y-62209060D01*
X132227399Y-61533763D01*
X132077178Y-60868393D01*
X131880961Y-60206237D01*
X131657267Y-59590400D01*
X131357706Y-58900112D01*
X131012456Y-58231015D01*
X130622699Y-57584713D01*
X130189619Y-56962812D01*
X129714399Y-56366915D01*
X129198222Y-55798627D01*
X128642271Y-55259554D01*
X128152044Y-54835929D01*
X128100514Y-54794723D01*
X128011675Y-54724961D01*
X127887454Y-54628124D01*
X127729778Y-54505688D01*
X127540572Y-54359133D01*
X127321763Y-54189937D01*
X127075277Y-53999579D01*
X126803041Y-53789537D01*
X126506979Y-53561290D01*
X126189020Y-53316316D01*
X125851088Y-53056093D01*
X125495111Y-52782101D01*
X125123014Y-52495818D01*
X124736724Y-52198723D01*
X124338166Y-51892293D01*
X123929267Y-51578008D01*
X123511954Y-51257345D01*
X123088152Y-50931785D01*
X122659788Y-50602804D01*
X122228787Y-50271882D01*
X121797077Y-49940497D01*
X121366583Y-49610128D01*
X120939232Y-49282253D01*
X120516949Y-48958351D01*
X120101662Y-48639900D01*
X119695295Y-48328379D01*
X119299776Y-48025267D01*
X118917031Y-47732041D01*
X118548986Y-47450181D01*
X118197566Y-47181164D01*
X117864700Y-46926471D01*
X117552311Y-46687578D01*
X117262328Y-46465965D01*
X116996675Y-46263110D01*
X116757280Y-46080491D01*
X116546068Y-45919588D01*
X116364965Y-45781878D01*
X116215899Y-45668841D01*
X116100794Y-45581955D01*
X116021578Y-45522698D01*
X115980177Y-45492549D01*
X115975750Y-45489602D01*
X115779396Y-45388349D01*
X115546479Y-45301687D01*
X115348435Y-45247631D01*
X115187712Y-45220857D01*
X114994065Y-45205125D01*
X114784150Y-45200418D01*
X114574625Y-45206719D01*
X114382148Y-45224011D01*
X114238100Y-45248763D01*
X113915324Y-45343493D01*
X113623111Y-45471184D01*
X113364849Y-45629684D01*
X113143926Y-45816841D01*
X112963731Y-46030505D01*
X112931665Y-46078103D01*
X112838398Y-46239407D01*
X112779401Y-46388733D01*
X112748979Y-46545457D01*
X112741402Y-46725300D01*
X112759162Y-46934579D01*
X112811256Y-47123989D01*
X112901437Y-47300620D01*
X113033457Y-47471565D01*
X113211070Y-47643915D01*
X113241212Y-47669765D01*
X113285050Y-47706185D01*
X113365599Y-47772392D01*
X113480128Y-47866162D01*
X113625904Y-47985268D01*
X113800197Y-48127484D01*
X114000274Y-48290584D01*
X114223403Y-48472344D01*
X114466853Y-48670536D01*
X114727891Y-48882935D01*
X115003787Y-49107316D01*
X115291807Y-49341452D01*
X115589221Y-49583118D01*
X115698600Y-49671968D01*
X115996109Y-49913696D01*
X116283451Y-50147312D01*
X116558064Y-50370723D01*
X116817386Y-50581842D01*
X117058856Y-50778576D01*
X117279913Y-50958836D01*
X117477994Y-51120531D01*
X117650539Y-51261572D01*
X117794986Y-51379867D01*
X117908773Y-51473327D01*
X117989339Y-51539862D01*
X118034122Y-51577380D01*
X118041750Y-51584080D01*
X118096458Y-51657310D01*
X118109650Y-51729325D01*
X118081119Y-51787520D01*
X118067197Y-51790651D01*
X118030986Y-51793580D01*
X117971121Y-51796312D01*
X117886233Y-51798853D01*
X117774957Y-51801209D01*
X117635925Y-51803386D01*
X117467771Y-51805388D01*
X117269128Y-51807222D01*
X117038628Y-51808894D01*
X116774906Y-51810409D01*
X116476593Y-51811772D01*
X116142324Y-51812990D01*
X115770731Y-51814068D01*
X115360448Y-51815011D01*
X114910108Y-51815827D01*
X114418343Y-51816519D01*
X113883787Y-51817093D01*
X113305073Y-51817557D01*
X112680834Y-51817914D01*
X112009704Y-51818171D01*
X111290315Y-51818333D01*
X110632569Y-51818402D01*
X109916919Y-51818524D01*
X109227748Y-51818810D01*
X108566451Y-51819255D01*
X107934422Y-51819855D01*
X107333056Y-51820604D01*
X106763747Y-51821499D01*
X106227890Y-51822535D01*
X105726878Y-51823708D01*
X105262106Y-51825013D01*
X104834968Y-51826446D01*
X104446860Y-51828002D01*
X104099174Y-51829677D01*
X103793305Y-51831466D01*
X103530649Y-51833366D01*
X103312598Y-51835371D01*
X103140548Y-51837477D01*
X103015893Y-51839679D01*
X102940026Y-51841974D01*
X102922400Y-51843017D01*
X102533676Y-51898359D01*
X102166708Y-51997575D01*
X101823922Y-52139614D01*
X101507749Y-52323428D01*
X101220618Y-52547968D01*
X101160617Y-52603657D01*
X100940466Y-52841937D01*
X100768898Y-53089563D01*
X100644104Y-53349469D01*
X100583937Y-53538998D01*
X100541179Y-53798886D01*
X100546497Y-54048480D01*
X100597698Y-54284785D01*
X100692585Y-54504806D01*
X100828964Y-54705547D01*
X101004638Y-54884016D01*
X101217412Y-55037215D01*
X101465091Y-55162151D01*
X101745480Y-55255829D01*
X101862463Y-55283087D01*
X101892738Y-55288481D01*
X101930465Y-55293376D01*
X101978071Y-55297797D01*
X102037982Y-55301766D01*
X102112624Y-55305308D01*
X102204422Y-55308446D01*
X102315802Y-55311203D01*
X102449190Y-55313604D01*
X102607011Y-55315671D01*
X102791693Y-55317429D01*
X103005660Y-55318900D01*
X103251339Y-55320109D01*
X103531155Y-55321078D01*
X103847534Y-55321833D01*
X104202902Y-55322395D01*
X104599684Y-55322790D01*
X105040308Y-55323039D01*
X105527198Y-55323168D01*
X105989649Y-55323200D01*
X106539410Y-55323287D01*
X107040229Y-55323557D01*
X107493966Y-55324026D01*
X107902478Y-55324707D01*
X108267624Y-55325614D01*
X108591263Y-55326763D01*
X108875253Y-55328166D01*
X109121451Y-55329839D01*
X109331718Y-55331796D01*
X109507910Y-55334050D01*
X109651887Y-55336617D01*
X109765507Y-55339510D01*
X109850628Y-55342745D01*
X109909109Y-55346334D01*
X109942809Y-55350293D01*
X109953119Y-55353679D01*
X109977972Y-55402587D01*
X109983600Y-55441051D01*
X109984342Y-55448480D01*
X109985303Y-55454986D01*
X109984584Y-55462063D01*
X109980287Y-55471204D01*
X109970515Y-55483904D01*
X109953368Y-55501657D01*
X109926948Y-55525956D01*
X109889357Y-55558295D01*
X109838696Y-55600169D01*
X109773068Y-55653072D01*
X109690574Y-55718497D01*
X109589315Y-55797938D01*
X109467394Y-55892890D01*
X109322912Y-56004847D01*
X109153971Y-56135302D01*
X108958672Y-56285749D01*
X108735117Y-56457682D01*
X108481408Y-56652596D01*
X108195647Y-56871984D01*
X107875934Y-57117341D01*
X107520373Y-57390160D01*
X107127064Y-57691935D01*
X106986400Y-57799868D01*
X106681342Y-58033957D01*
X106360403Y-58280252D01*
X106029720Y-58534043D01*
X105695430Y-58790618D01*
X105363670Y-59045268D01*
X105040576Y-59293282D01*
X104732286Y-59529948D01*
X104444936Y-59750557D01*
X104184663Y-59950397D01*
X103957605Y-60124757D01*
X103925700Y-60149260D01*
X103704349Y-60319241D01*
X103448829Y-60515431D01*
X103165277Y-60733119D01*
X102859831Y-60967595D01*
X102538628Y-61214148D01*
X102207805Y-61468068D01*
X101873499Y-61724643D01*
X101541848Y-61979163D01*
X101218988Y-62226918D01*
X100911057Y-62463196D01*
X100865000Y-62498534D01*
X100576090Y-62720208D01*
X100283081Y-62945038D01*
X99990645Y-63169437D01*
X99703454Y-63389821D01*
X99426181Y-63602603D01*
X99163499Y-63804197D01*
X98920081Y-63991017D01*
X98700598Y-64159477D01*
X98509724Y-64305992D01*
X98352131Y-64426975D01*
X98286900Y-64477061D01*
X98080482Y-64635532D01*
X97856342Y-64807564D01*
X97625063Y-64985033D01*
X97397233Y-65159819D01*
X97183435Y-65323801D01*
X96994257Y-65468856D01*
X96915300Y-65529378D01*
X96660622Y-65727241D01*
X96443952Y-65901789D01*
X96260641Y-66057293D01*
X96106039Y-66198021D01*
X95975496Y-66328245D01*
X95864361Y-66452234D01*
X95767986Y-66574257D01*
X95748822Y-66600539D01*
X95561353Y-66893104D01*
X95407836Y-67199420D01*
X95293005Y-67508772D01*
X95226185Y-67783525D01*
X95206222Y-67958400D01*
X95201320Y-68158135D01*
X94964545Y-68158135D01*
X94966484Y-68000450D01*
X94980181Y-67827174D01*
X94995902Y-67731100D01*
X95098826Y-67353210D01*
X95241573Y-66998443D01*
X95426069Y-66663913D01*
X95654240Y-66346737D01*
X95928012Y-66044030D01*
X96249311Y-65752907D01*
X96394600Y-65636713D01*
X96460016Y-65586266D01*
X96564999Y-65505477D01*
X96708801Y-65394919D01*
X96890679Y-65255162D01*
X97109885Y-65086780D01*
X97365676Y-64890344D01*
X97657306Y-64666426D01*
X97984029Y-64415599D01*
X98345100Y-64138433D01*
X98739774Y-63835502D01*
X99167306Y-63507378D01*
X99626949Y-63154632D01*
X100117958Y-62777836D01*
X100639589Y-62377562D01*
X101191096Y-61954384D01*
X101771734Y-61508871D01*
X102380756Y-61041597D01*
X103017419Y-60553134D01*
X103680976Y-60044053D01*
X104370682Y-59514927D01*
X105085792Y-58966327D01*
X105825560Y-58398827D01*
X106008500Y-58258490D01*
X106376566Y-57976073D01*
X106734127Y-57701587D01*
X107079065Y-57436665D01*
X107409259Y-57182939D01*
X107722592Y-56942041D01*
X108016945Y-56715603D01*
X108290199Y-56505257D01*
X108540235Y-56312637D01*
X108764933Y-56139374D01*
X108962176Y-55987101D01*
X109129845Y-55857451D01*
X109265820Y-55752054D01*
X109367983Y-55672545D01*
X109434214Y-55620554D01*
X109462396Y-55597715D01*
X109462900Y-55597240D01*
X109469316Y-55590405D01*
X109472490Y-55584226D01*
X109470038Y-55578675D01*
X109459578Y-55573726D01*
X109438729Y-55569351D01*
X109405109Y-55565523D01*
X109356335Y-55562217D01*
X109290026Y-55559404D01*
X109203800Y-55557058D01*
X109095274Y-55555152D01*
X108962067Y-55553660D01*
X108801796Y-55552553D01*
X108612080Y-55551806D01*
X108390537Y-55551391D01*
X108134785Y-55551282D01*
X107842441Y-55551451D01*
X107511124Y-55551871D01*
X107138452Y-55552517D01*
X106722043Y-55553360D01*
X106259514Y-55554374D01*
X105767200Y-55555490D01*
X105247012Y-55556721D01*
X104775035Y-55557869D01*
X104348679Y-55558837D01*
X103965355Y-55559530D01*
X103622472Y-55559854D01*
X103317442Y-55559714D01*
X103047675Y-55559013D01*
X102810581Y-55557658D01*
X102603571Y-55555552D01*
X102424056Y-55552601D01*
X102269445Y-55548710D01*
X102137149Y-55543783D01*
X102024580Y-55537725D01*
X101929147Y-55530442D01*
X101848260Y-55521837D01*
X101779331Y-55511817D01*
X101719770Y-55500285D01*
X101666987Y-55487147D01*
X101618392Y-55472307D01*
X101571397Y-55455671D01*
X101523412Y-55437143D01*
X101471847Y-55416628D01*
X101418502Y-55395718D01*
X101140579Y-55264661D01*
X100900574Y-55102402D01*
X100699609Y-54912759D01*
X100538804Y-54699554D01*
X100419281Y-54466605D01*
X100342161Y-54217732D01*
X100308565Y-53956756D01*
X100319614Y-53687496D01*
X100376429Y-53413771D01*
X100480130Y-53139403D01*
X100631840Y-52868209D01*
X100663101Y-52821807D01*
X100881511Y-52550051D01*
X101140350Y-52306561D01*
X101436631Y-52093228D01*
X101767367Y-51911944D01*
X102129571Y-51764598D01*
X102503300Y-51657023D01*
X102731900Y-51603367D01*
X110194391Y-51595967D01*
X110942972Y-51595143D01*
X111657267Y-51594195D01*
X112336317Y-51593125D01*
X112979165Y-51591938D01*
X113584852Y-51590637D01*
X114152420Y-51589227D01*
X114680910Y-51587712D01*
X115169364Y-51586095D01*
X115616824Y-51584381D01*
X116022332Y-51582574D01*
X116384928Y-51580678D01*
X116703656Y-51578697D01*
X116977556Y-51576634D01*
X117205670Y-51574495D01*
X117387040Y-51572282D01*
X117520708Y-51570000D01*
X117605714Y-51567653D01*
X117641102Y-51565245D01*
X117642119Y-51564678D01*
X117620865Y-51545852D01*
X117562646Y-51497028D01*
X117469935Y-51420226D01*
X117345203Y-51317472D01*
X117190922Y-51190786D01*
X117009564Y-51042191D01*
X116803601Y-50873712D01*
X116575505Y-50687369D01*
X116327747Y-50485187D01*
X116062800Y-50269187D01*
X115783135Y-50041393D01*
X115491224Y-49803827D01*
X115339422Y-49680364D01*
X115039095Y-49435906D01*
X114747759Y-49198286D01*
X114468082Y-48969705D01*
X114202734Y-48752364D01*
X113954383Y-48548466D01*
X113725698Y-48360212D01*
X113519347Y-48189803D01*
X113337999Y-48039442D01*
X113184322Y-47911329D01*
X113060986Y-47807667D01*
X112970658Y-47730657D01*
X112916008Y-47682501D01*
X112904320Y-47671393D01*
X112742463Y-47474932D01*
X112619889Y-47255546D01*
X112538788Y-47020851D01*
X112501350Y-46778467D01*
X112509767Y-46536012D01*
X112537351Y-46395158D01*
X112629723Y-46139375D01*
X112767061Y-45901565D01*
X112945926Y-45684299D01*
X113162873Y-45490149D01*
X113414463Y-45321687D01*
X113697252Y-45181485D01*
X114007798Y-45072115D01*
X114342660Y-44996149D01*
X114427099Y-44983055D01*
X114619928Y-44966491D01*
X114841021Y-44964804D01*
X115070697Y-44976974D01*
G37*
X115070697Y-44976974D02*
X115289274Y-45001983D01*
X115470000Y-45037026D01*
X115568915Y-45063149D01*
X115661832Y-45091605D01*
X115752583Y-45124834D01*
X115844994Y-45165270D01*
X115942897Y-45215350D01*
X116050121Y-45277512D01*
X116170495Y-45354192D01*
X116307848Y-45447827D01*
X116466010Y-45560853D01*
X116648811Y-45695707D01*
X116860079Y-45854826D01*
X117103645Y-46040646D01*
X117375000Y-46249181D01*
X117534230Y-46371766D01*
X117731343Y-46523420D01*
X117963923Y-46702288D01*
X118229552Y-46906513D01*
X118525811Y-47134238D01*
X118850285Y-47383606D01*
X119200554Y-47652761D01*
X119574203Y-47939845D01*
X119968812Y-48243003D01*
X120381966Y-48560377D01*
X120811246Y-48890112D01*
X121254235Y-49230349D01*
X121708515Y-49579233D01*
X122171670Y-49934906D01*
X122641281Y-50295513D01*
X123114931Y-50659195D01*
X123590203Y-51024098D01*
X124064679Y-51388363D01*
X124535942Y-51750135D01*
X125001574Y-52107556D01*
X125459158Y-52458770D01*
X125906276Y-52801920D01*
X126340512Y-53135149D01*
X126506300Y-53262364D01*
X126849859Y-53526124D01*
X127156147Y-53761705D01*
X127428300Y-53971720D01*
X127669452Y-54158780D01*
X127882738Y-54325499D01*
X128071291Y-54474487D01*
X128238247Y-54608359D01*
X128386740Y-54729725D01*
X128519905Y-54841198D01*
X128640876Y-54945390D01*
X128752788Y-55044915D01*
X128858775Y-55142383D01*
X128961972Y-55240407D01*
X129065514Y-55341600D01*
X129172535Y-55448574D01*
X129286170Y-55563940D01*
X129365704Y-55645323D01*
X129891972Y-56220127D01*
X130374032Y-56819793D01*
X130811496Y-57443488D01*
X131203977Y-58090376D01*
X131551087Y-58759623D01*
X131852438Y-59450394D01*
X132107643Y-60161853D01*
X132316314Y-60893167D01*
X132478065Y-61643500D01*
X132592506Y-62412017D01*
X132618052Y-62651100D01*
X132640635Y-62967593D01*
X132651508Y-63320370D01*
X132651036Y-63696370D01*
X132639580Y-64082531D01*
X132617504Y-64465793D01*
X132585171Y-64833094D01*
X132549248Y-65127600D01*
X132421159Y-65856770D01*
X132244561Y-66574064D01*
X132020740Y-67277648D01*
X131750983Y-67965688D01*
X131436579Y-68636350D01*
X131078815Y-69287799D01*
X130678978Y-69918203D01*
X130238356Y-70525727D01*
X129758235Y-71108537D01*
X129239905Y-71664798D01*
X128684651Y-72192678D01*
X128093762Y-72690341D01*
X127468525Y-73155955D01*
X126810227Y-73587684D01*
X126467449Y-73791207D01*
X125751623Y-74173980D01*
X125015792Y-74512119D01*
X124258497Y-74806090D01*
X123478281Y-75056357D01*
X122673684Y-75263384D01*
X121843250Y-75427637D01*
X120985519Y-75549580D01*
X120931000Y-75555804D01*
X120798902Y-75567421D01*
X120624486Y-75577853D01*
X120416224Y-75586980D01*
X120182587Y-75594680D01*
X119932045Y-75600834D01*
X119673071Y-75605320D01*
X119414134Y-75608018D01*
X119163707Y-75608806D01*
X118930260Y-75607564D01*
X118722265Y-75604171D01*
X118548193Y-75598506D01*
X118429100Y-75591490D01*
X117567305Y-75499054D01*
X116724843Y-75360329D01*
X115902375Y-75175542D01*
X115100563Y-74944915D01*
X114320069Y-74668674D01*
X113561555Y-74347043D01*
X112825683Y-73980247D01*
X112113115Y-73568509D01*
X111723500Y-73317719D01*
X111332435Y-73047687D01*
X110970692Y-72778620D01*
X110626880Y-72501025D01*
X110289607Y-72205405D01*
X109947479Y-71882266D01*
X109676136Y-71611344D01*
X109168160Y-71063689D01*
X108706268Y-70502154D01*
X108286409Y-69921060D01*
X107904536Y-69314726D01*
X107556596Y-68677472D01*
X107491312Y-68547002D01*
X107185782Y-67875668D01*
X106931009Y-67203535D01*
X106726953Y-66530471D01*
X106573575Y-65856340D01*
X106470835Y-65181009D01*
X106450944Y-64989625D01*
X106438776Y-64833148D01*
X106433334Y-64685691D01*
X106434629Y-64530955D01*
X106442672Y-64352646D01*
X106451410Y-64217975D01*
X106462307Y-64071338D01*
X106473117Y-63941102D01*
X106483004Y-63836255D01*
X106491133Y-63765782D01*
X106495880Y-63740000D01*
X106498289Y-63709200D01*
X106491674Y-63705200D01*
X106470501Y-63721030D01*
X106412001Y-63767455D01*
X106318139Y-63842872D01*
X106190884Y-63945679D01*
X106032202Y-64074274D01*
X105844060Y-64227056D01*
X105628424Y-64402422D01*
X105387263Y-64598770D01*
X105122542Y-64814499D01*
X104836229Y-65048006D01*
X104530290Y-65297690D01*
X104206694Y-65561949D01*
X103867405Y-65839181D01*
X103514392Y-66127783D01*
X103149621Y-66426155D01*
X102913907Y-66619043D01*
X102539929Y-66925023D01*
X102174830Y-67223542D01*
X101820702Y-67512898D01*
X101479632Y-67791392D01*
X101153712Y-68057323D01*
X100845030Y-68308992D01*
X100555677Y-68544698D01*
X100287741Y-68762741D01*
X100043314Y-68961421D01*
X99824485Y-69139038D01*
X99633342Y-69293893D01*
X99471977Y-69424284D01*
X99342479Y-69528512D01*
X99246937Y-69604876D01*
X99187441Y-69651678D01*
X99170801Y-69664230D01*
X98885969Y-69844819D01*
X98567715Y-70004565D01*
X98231312Y-70137099D01*
X97892031Y-70236051D01*
X97708378Y-70274090D01*
X97520882Y-70296503D01*
X97305724Y-70305499D01*
X97079672Y-70301646D01*
X96859492Y-70285513D01*
X96661952Y-70257668D01*
X96559700Y-70235165D01*
X96243509Y-70127635D01*
X95954501Y-69979295D01*
X95695684Y-69793102D01*
X95470065Y-69572013D01*
X95280650Y-69318985D01*
X95130447Y-69036975D01*
X95022464Y-68728939D01*
X95020535Y-68721700D01*
X94991563Y-68572026D01*
X94972609Y-68390307D01*
X94964105Y-68193971D01*
X94964545Y-68158135D01*
X95201320Y-68158135D01*
X95210511Y-68365736D01*
X95232829Y-68564214D01*
X95267307Y-68736577D01*
X95283582Y-68792262D01*
X95400356Y-69069390D01*
X95559000Y-69320168D01*
X95755838Y-69540749D01*
X95987198Y-69727287D01*
X96249405Y-69875937D01*
X96366156Y-69925496D01*
X96677218Y-70018902D01*
X97005622Y-70068003D01*
X97345643Y-70073752D01*
X97691557Y-70037104D01*
X98037640Y-69959015D01*
X98378166Y-69840438D01*
X98707412Y-69682329D01*
X99019654Y-69485643D01*
X99024670Y-69482052D01*
X99062958Y-69452611D01*
X99138494Y-69392637D01*
X99249233Y-69303792D01*
X99393130Y-69187742D01*
X99568139Y-69046150D01*
X99772214Y-68880680D01*
X100003312Y-68692996D01*
X100259386Y-68484761D01*
X100538391Y-68257641D01*
X100838282Y-68013298D01*
X101157014Y-67753398D01*
X101492542Y-67479602D01*
X101842819Y-67193577D01*
X102205802Y-66896984D01*
X102579445Y-66591490D01*
X102905197Y-66324997D01*
X103289671Y-66010589D01*
X103662942Y-65705754D01*
X104023116Y-65412021D01*
X104368300Y-65130918D01*
X104696602Y-64863974D01*
X105006129Y-64612717D01*
X105294988Y-64378677D01*
X105561287Y-64163382D01*
X105803131Y-63968361D01*
X106018630Y-63795143D01*
X106205889Y-63645256D01*
X106363016Y-63520230D01*
X106488119Y-63421592D01*
X106579304Y-63350872D01*
X106634679Y-63309599D01*
X106652057Y-63298800D01*
X106692588Y-63302824D01*
X106721471Y-63319102D01*
X106739525Y-63353935D01*
X106747568Y-63413627D01*
X106746418Y-63504483D01*
X106736893Y-63632805D01*
X106719812Y-63804898D01*
X106718884Y-63813722D01*
X106681571Y-64304215D01*
X106676917Y-64760282D01*
X106704952Y-65186434D01*
X106730016Y-65381600D01*
X106861879Y-66091537D01*
X107042770Y-66788480D01*
X107272722Y-67472505D01*
X107551767Y-68143687D01*
X107879938Y-68802102D01*
X108257268Y-69447825D01*
X108683788Y-70080931D01*
X108842401Y-70296500D01*
X109016349Y-70523299D01*
X109183000Y-70730171D01*
X109352103Y-70928297D01*
X109533408Y-71128861D01*
X109736663Y-71343044D01*
X109902414Y-71512311D01*
X110420652Y-72009960D01*
X110950582Y-72465570D01*
X111499484Y-72884355D01*
X112074635Y-73271524D01*
X112683314Y-73632288D01*
X113332801Y-73971859D01*
X113349100Y-73979864D01*
X113649681Y-74124923D01*
X113919265Y-74249388D01*
X114170581Y-74358526D01*
X114416357Y-74457600D01*
X114669322Y-74551877D01*
X114942205Y-74646622D01*
X115040124Y-74679327D01*
X115778885Y-74901815D01*
X116528410Y-75082828D01*
X117295280Y-75223636D01*
X118086076Y-75325504D01*
X118645000Y-75373467D01*
X118755742Y-75378310D01*
X118908702Y-75380938D01*
X119095357Y-75381527D01*
X119307180Y-75380259D01*
X119535646Y-75377313D01*
X119772232Y-75372867D01*
X120008411Y-75367101D01*
X120235660Y-75360195D01*
X120445452Y-75352328D01*
X120629263Y-75343679D01*
X120778569Y-75334427D01*
X120867500Y-75326706D01*
X121698573Y-75216508D01*
X122502461Y-75065011D01*
X123282738Y-74871346D01*
X124042976Y-74634644D01*
X124664800Y-74403483D01*
X125394231Y-74086531D01*
X126097067Y-73730327D01*
X126771685Y-73336535D01*
X127416462Y-72906818D01*
X128029776Y-72442840D01*
X128610004Y-71946263D01*
X129155523Y-71418752D01*
X129664710Y-70861969D01*
X130135943Y-70277579D01*
X130567598Y-69667245D01*
X130958054Y-69032631D01*
X131305688Y-68375399D01*
X131608876Y-67697213D01*
X131855076Y-67032600D01*
X132037756Y-66439540D01*
X132181988Y-65864999D01*
X132289771Y-65296762D01*
X132363106Y-64722616D01*
X132403995Y-64130347D01*
X132414724Y-63616300D01*
X132394908Y-62901000D01*
X132332888Y-62209060D01*
X132227399Y-61533763D01*
X132077178Y-60868393D01*
X131880961Y-60206237D01*
X131657267Y-59590400D01*
X131357706Y-58900112D01*
X131012456Y-58231015D01*
X130622699Y-57584713D01*
X130189619Y-56962812D01*
X129714399Y-56366915D01*
X129198222Y-55798627D01*
X128642271Y-55259554D01*
X128152044Y-54835929D01*
X128100514Y-54794723D01*
X128011675Y-54724961D01*
X127887454Y-54628124D01*
X127729778Y-54505688D01*
X127540572Y-54359133D01*
X127321763Y-54189937D01*
X127075277Y-53999579D01*
X126803041Y-53789537D01*
X126506979Y-53561290D01*
X126189020Y-53316316D01*
X125851088Y-53056093D01*
X125495111Y-52782101D01*
X125123014Y-52495818D01*
X124736724Y-52198723D01*
X124338166Y-51892293D01*
X123929267Y-51578008D01*
X123511954Y-51257345D01*
X123088152Y-50931785D01*
X122659788Y-50602804D01*
X122228787Y-50271882D01*
X121797077Y-49940497D01*
X121366583Y-49610128D01*
X120939232Y-49282253D01*
X120516949Y-48958351D01*
X120101662Y-48639900D01*
X119695295Y-48328379D01*
X119299776Y-48025267D01*
X118917031Y-47732041D01*
X118548986Y-47450181D01*
X118197566Y-47181164D01*
X117864700Y-46926471D01*
X117552311Y-46687578D01*
X117262328Y-46465965D01*
X116996675Y-46263110D01*
X116757280Y-46080491D01*
X116546068Y-45919588D01*
X116364965Y-45781878D01*
X116215899Y-45668841D01*
X116100794Y-45581955D01*
X116021578Y-45522698D01*
X115980177Y-45492549D01*
X115975750Y-45489602D01*
X115779396Y-45388349D01*
X115546479Y-45301687D01*
X115348435Y-45247631D01*
X115187712Y-45220857D01*
X114994065Y-45205125D01*
X114784150Y-45200418D01*
X114574625Y-45206719D01*
X114382148Y-45224011D01*
X114238100Y-45248763D01*
X113915324Y-45343493D01*
X113623111Y-45471184D01*
X113364849Y-45629684D01*
X113143926Y-45816841D01*
X112963731Y-46030505D01*
X112931665Y-46078103D01*
X112838398Y-46239407D01*
X112779401Y-46388733D01*
X112748979Y-46545457D01*
X112741402Y-46725300D01*
X112759162Y-46934579D01*
X112811256Y-47123989D01*
X112901437Y-47300620D01*
X113033457Y-47471565D01*
X113211070Y-47643915D01*
X113241212Y-47669765D01*
X113285050Y-47706185D01*
X113365599Y-47772392D01*
X113480128Y-47866162D01*
X113625904Y-47985268D01*
X113800197Y-48127484D01*
X114000274Y-48290584D01*
X114223403Y-48472344D01*
X114466853Y-48670536D01*
X114727891Y-48882935D01*
X115003787Y-49107316D01*
X115291807Y-49341452D01*
X115589221Y-49583118D01*
X115698600Y-49671968D01*
X115996109Y-49913696D01*
X116283451Y-50147312D01*
X116558064Y-50370723D01*
X116817386Y-50581842D01*
X117058856Y-50778576D01*
X117279913Y-50958836D01*
X117477994Y-51120531D01*
X117650539Y-51261572D01*
X117794986Y-51379867D01*
X117908773Y-51473327D01*
X117989339Y-51539862D01*
X118034122Y-51577380D01*
X118041750Y-51584080D01*
X118096458Y-51657310D01*
X118109650Y-51729325D01*
X118081119Y-51787520D01*
X118067197Y-51790651D01*
X118030986Y-51793580D01*
X117971121Y-51796312D01*
X117886233Y-51798853D01*
X117774957Y-51801209D01*
X117635925Y-51803386D01*
X117467771Y-51805388D01*
X117269128Y-51807222D01*
X117038628Y-51808894D01*
X116774906Y-51810409D01*
X116476593Y-51811772D01*
X116142324Y-51812990D01*
X115770731Y-51814068D01*
X115360448Y-51815011D01*
X114910108Y-51815827D01*
X114418343Y-51816519D01*
X113883787Y-51817093D01*
X113305073Y-51817557D01*
X112680834Y-51817914D01*
X112009704Y-51818171D01*
X111290315Y-51818333D01*
X110632569Y-51818402D01*
X109916919Y-51818524D01*
X109227748Y-51818810D01*
X108566451Y-51819255D01*
X107934422Y-51819855D01*
X107333056Y-51820604D01*
X106763747Y-51821499D01*
X106227890Y-51822535D01*
X105726878Y-51823708D01*
X105262106Y-51825013D01*
X104834968Y-51826446D01*
X104446860Y-51828002D01*
X104099174Y-51829677D01*
X103793305Y-51831466D01*
X103530649Y-51833366D01*
X103312598Y-51835371D01*
X103140548Y-51837477D01*
X103015893Y-51839679D01*
X102940026Y-51841974D01*
X102922400Y-51843017D01*
X102533676Y-51898359D01*
X102166708Y-51997575D01*
X101823922Y-52139614D01*
X101507749Y-52323428D01*
X101220618Y-52547968D01*
X101160617Y-52603657D01*
X100940466Y-52841937D01*
X100768898Y-53089563D01*
X100644104Y-53349469D01*
X100583937Y-53538998D01*
X100541179Y-53798886D01*
X100546497Y-54048480D01*
X100597698Y-54284785D01*
X100692585Y-54504806D01*
X100828964Y-54705547D01*
X101004638Y-54884016D01*
X101217412Y-55037215D01*
X101465091Y-55162151D01*
X101745480Y-55255829D01*
X101862463Y-55283087D01*
X101892738Y-55288481D01*
X101930465Y-55293376D01*
X101978071Y-55297797D01*
X102037982Y-55301766D01*
X102112624Y-55305308D01*
X102204422Y-55308446D01*
X102315802Y-55311203D01*
X102449190Y-55313604D01*
X102607011Y-55315671D01*
X102791693Y-55317429D01*
X103005660Y-55318900D01*
X103251339Y-55320109D01*
X103531155Y-55321078D01*
X103847534Y-55321833D01*
X104202902Y-55322395D01*
X104599684Y-55322790D01*
X105040308Y-55323039D01*
X105527198Y-55323168D01*
X105989649Y-55323200D01*
X106539410Y-55323287D01*
X107040229Y-55323557D01*
X107493966Y-55324026D01*
X107902478Y-55324707D01*
X108267624Y-55325614D01*
X108591263Y-55326763D01*
X108875253Y-55328166D01*
X109121451Y-55329839D01*
X109331718Y-55331796D01*
X109507910Y-55334050D01*
X109651887Y-55336617D01*
X109765507Y-55339510D01*
X109850628Y-55342745D01*
X109909109Y-55346334D01*
X109942809Y-55350293D01*
X109953119Y-55353679D01*
X109977972Y-55402587D01*
X109983600Y-55441051D01*
X109984342Y-55448480D01*
X109985303Y-55454986D01*
X109984584Y-55462063D01*
X109980287Y-55471204D01*
X109970515Y-55483904D01*
X109953368Y-55501657D01*
X109926948Y-55525956D01*
X109889357Y-55558295D01*
X109838696Y-55600169D01*
X109773068Y-55653072D01*
X109690574Y-55718497D01*
X109589315Y-55797938D01*
X109467394Y-55892890D01*
X109322912Y-56004847D01*
X109153971Y-56135302D01*
X108958672Y-56285749D01*
X108735117Y-56457682D01*
X108481408Y-56652596D01*
X108195647Y-56871984D01*
X107875934Y-57117341D01*
X107520373Y-57390160D01*
X107127064Y-57691935D01*
X106986400Y-57799868D01*
X106681342Y-58033957D01*
X106360403Y-58280252D01*
X106029720Y-58534043D01*
X105695430Y-58790618D01*
X105363670Y-59045268D01*
X105040576Y-59293282D01*
X104732286Y-59529948D01*
X104444936Y-59750557D01*
X104184663Y-59950397D01*
X103957605Y-60124757D01*
X103925700Y-60149260D01*
X103704349Y-60319241D01*
X103448829Y-60515431D01*
X103165277Y-60733119D01*
X102859831Y-60967595D01*
X102538628Y-61214148D01*
X102207805Y-61468068D01*
X101873499Y-61724643D01*
X101541848Y-61979163D01*
X101218988Y-62226918D01*
X100911057Y-62463196D01*
X100865000Y-62498534D01*
X100576090Y-62720208D01*
X100283081Y-62945038D01*
X99990645Y-63169437D01*
X99703454Y-63389821D01*
X99426181Y-63602603D01*
X99163499Y-63804197D01*
X98920081Y-63991017D01*
X98700598Y-64159477D01*
X98509724Y-64305992D01*
X98352131Y-64426975D01*
X98286900Y-64477061D01*
X98080482Y-64635532D01*
X97856342Y-64807564D01*
X97625063Y-64985033D01*
X97397233Y-65159819D01*
X97183435Y-65323801D01*
X96994257Y-65468856D01*
X96915300Y-65529378D01*
X96660622Y-65727241D01*
X96443952Y-65901789D01*
X96260641Y-66057293D01*
X96106039Y-66198021D01*
X95975496Y-66328245D01*
X95864361Y-66452234D01*
X95767986Y-66574257D01*
X95748822Y-66600539D01*
X95561353Y-66893104D01*
X95407836Y-67199420D01*
X95293005Y-67508772D01*
X95226185Y-67783525D01*
X95206222Y-67958400D01*
X95201320Y-68158135D01*
X94964545Y-68158135D01*
X94966484Y-68000450D01*
X94980181Y-67827174D01*
X94995902Y-67731100D01*
X95098826Y-67353210D01*
X95241573Y-66998443D01*
X95426069Y-66663913D01*
X95654240Y-66346737D01*
X95928012Y-66044030D01*
X96249311Y-65752907D01*
X96394600Y-65636713D01*
X96460016Y-65586266D01*
X96564999Y-65505477D01*
X96708801Y-65394919D01*
X96890679Y-65255162D01*
X97109885Y-65086780D01*
X97365676Y-64890344D01*
X97657306Y-64666426D01*
X97984029Y-64415599D01*
X98345100Y-64138433D01*
X98739774Y-63835502D01*
X99167306Y-63507378D01*
X99626949Y-63154632D01*
X100117958Y-62777836D01*
X100639589Y-62377562D01*
X101191096Y-61954384D01*
X101771734Y-61508871D01*
X102380756Y-61041597D01*
X103017419Y-60553134D01*
X103680976Y-60044053D01*
X104370682Y-59514927D01*
X105085792Y-58966327D01*
X105825560Y-58398827D01*
X106008500Y-58258490D01*
X106376566Y-57976073D01*
X106734127Y-57701587D01*
X107079065Y-57436665D01*
X107409259Y-57182939D01*
X107722592Y-56942041D01*
X108016945Y-56715603D01*
X108290199Y-56505257D01*
X108540235Y-56312637D01*
X108764933Y-56139374D01*
X108962176Y-55987101D01*
X109129845Y-55857451D01*
X109265820Y-55752054D01*
X109367983Y-55672545D01*
X109434214Y-55620554D01*
X109462396Y-55597715D01*
X109462900Y-55597240D01*
X109469316Y-55590405D01*
X109472490Y-55584226D01*
X109470038Y-55578675D01*
X109459578Y-55573726D01*
X109438729Y-55569351D01*
X109405109Y-55565523D01*
X109356335Y-55562217D01*
X109290026Y-55559404D01*
X109203800Y-55557058D01*
X109095274Y-55555152D01*
X108962067Y-55553660D01*
X108801796Y-55552553D01*
X108612080Y-55551806D01*
X108390537Y-55551391D01*
X108134785Y-55551282D01*
X107842441Y-55551451D01*
X107511124Y-55551871D01*
X107138452Y-55552517D01*
X106722043Y-55553360D01*
X106259514Y-55554374D01*
X105767200Y-55555490D01*
X105247012Y-55556721D01*
X104775035Y-55557869D01*
X104348679Y-55558837D01*
X103965355Y-55559530D01*
X103622472Y-55559854D01*
X103317442Y-55559714D01*
X103047675Y-55559013D01*
X102810581Y-55557658D01*
X102603571Y-55555552D01*
X102424056Y-55552601D01*
X102269445Y-55548710D01*
X102137149Y-55543783D01*
X102024580Y-55537725D01*
X101929147Y-55530442D01*
X101848260Y-55521837D01*
X101779331Y-55511817D01*
X101719770Y-55500285D01*
X101666987Y-55487147D01*
X101618392Y-55472307D01*
X101571397Y-55455671D01*
X101523412Y-55437143D01*
X101471847Y-55416628D01*
X101418502Y-55395718D01*
X101140579Y-55264661D01*
X100900574Y-55102402D01*
X100699609Y-54912759D01*
X100538804Y-54699554D01*
X100419281Y-54466605D01*
X100342161Y-54217732D01*
X100308565Y-53956756D01*
X100319614Y-53687496D01*
X100376429Y-53413771D01*
X100480130Y-53139403D01*
X100631840Y-52868209D01*
X100663101Y-52821807D01*
X100881511Y-52550051D01*
X101140350Y-52306561D01*
X101436631Y-52093228D01*
X101767367Y-51911944D01*
X102129571Y-51764598D01*
X102503300Y-51657023D01*
X102731900Y-51603367D01*
X110194391Y-51595967D01*
X110942972Y-51595143D01*
X111657267Y-51594195D01*
X112336317Y-51593125D01*
X112979165Y-51591938D01*
X113584852Y-51590637D01*
X114152420Y-51589227D01*
X114680910Y-51587712D01*
X115169364Y-51586095D01*
X115616824Y-51584381D01*
X116022332Y-51582574D01*
X116384928Y-51580678D01*
X116703656Y-51578697D01*
X116977556Y-51576634D01*
X117205670Y-51574495D01*
X117387040Y-51572282D01*
X117520708Y-51570000D01*
X117605714Y-51567653D01*
X117641102Y-51565245D01*
X117642119Y-51564678D01*
X117620865Y-51545852D01*
X117562646Y-51497028D01*
X117469935Y-51420226D01*
X117345203Y-51317472D01*
X117190922Y-51190786D01*
X117009564Y-51042191D01*
X116803601Y-50873712D01*
X116575505Y-50687369D01*
X116327747Y-50485187D01*
X116062800Y-50269187D01*
X115783135Y-50041393D01*
X115491224Y-49803827D01*
X115339422Y-49680364D01*
X115039095Y-49435906D01*
X114747759Y-49198286D01*
X114468082Y-48969705D01*
X114202734Y-48752364D01*
X113954383Y-48548466D01*
X113725698Y-48360212D01*
X113519347Y-48189803D01*
X113337999Y-48039442D01*
X113184322Y-47911329D01*
X113060986Y-47807667D01*
X112970658Y-47730657D01*
X112916008Y-47682501D01*
X112904320Y-47671393D01*
X112742463Y-47474932D01*
X112619889Y-47255546D01*
X112538788Y-47020851D01*
X112501350Y-46778467D01*
X112509767Y-46536012D01*
X112537351Y-46395158D01*
X112629723Y-46139375D01*
X112767061Y-45901565D01*
X112945926Y-45684299D01*
X113162873Y-45490149D01*
X113414463Y-45321687D01*
X113697252Y-45181485D01*
X114007798Y-45072115D01*
X114342660Y-44996149D01*
X114427099Y-44983055D01*
X114619928Y-44966491D01*
X114841021Y-44964804D01*
X115070697Y-44976974D01*
G36*
X91101731Y-72815531D02*
G01*
X91151323Y-72868915D01*
X91213291Y-72961533D01*
X91289685Y-73096368D01*
X91359306Y-73230200D01*
X91586288Y-73646527D01*
X91844913Y-74060974D01*
X92137033Y-74475596D01*
X92464502Y-74892452D01*
X92829171Y-75313598D01*
X93232894Y-75741093D01*
X93677523Y-76176993D01*
X94164912Y-76623356D01*
X94696913Y-77082239D01*
X95200800Y-77495918D01*
X95487968Y-77725927D01*
X95776968Y-77955636D01*
X96069973Y-78186668D01*
X96369155Y-78420650D01*
X96676687Y-78659206D01*
X96994743Y-78903962D01*
X97325494Y-79156541D01*
X97671114Y-79418570D01*
X98033775Y-79691672D01*
X98415650Y-79977474D01*
X98818912Y-80277600D01*
X99245734Y-80593675D01*
X99698288Y-80927325D01*
X100178747Y-81280173D01*
X100689285Y-81653846D01*
X101232073Y-82049967D01*
X101809285Y-82470163D01*
X102423093Y-82916058D01*
X103075670Y-83389277D01*
X103239900Y-83508255D01*
X103505087Y-83700403D01*
X103775372Y-83896358D01*
X104045194Y-84092085D01*
X104308996Y-84283546D01*
X104561220Y-84466704D01*
X104796306Y-84637523D01*
X105008697Y-84791967D01*
X105192834Y-84925998D01*
X105343159Y-85035580D01*
X105383326Y-85064904D01*
X105858820Y-85409757D01*
X106330492Y-85747033D01*
X106794887Y-86074416D01*
X107248547Y-86389588D01*
X107688017Y-86690231D01*
X108109840Y-86974028D01*
X108510560Y-87238661D01*
X108886719Y-87481812D01*
X109234861Y-87701166D01*
X109551530Y-87894402D01*
X109833269Y-88059206D01*
X109932800Y-88115197D01*
X110418787Y-88372957D01*
X110905159Y-88607387D01*
X111386690Y-88816579D01*
X111858153Y-88998627D01*
X112314323Y-89151624D01*
X112749973Y-89273664D01*
X113159877Y-89362839D01*
X113485640Y-89411543D01*
X113661541Y-89425437D01*
X113873526Y-89432479D01*
X114108526Y-89433058D01*
X114353474Y-89427567D01*
X114595302Y-89416395D01*
X114820943Y-89399933D01*
X115017328Y-89378573D01*
X115120887Y-89362644D01*
X115525637Y-89279520D01*
X115933396Y-89173858D01*
X116347267Y-89044200D01*
X116770349Y-88889089D01*
X117205747Y-88707066D01*
X117656560Y-88496673D01*
X118125891Y-88256454D01*
X118616842Y-87984950D01*
X119132513Y-87680703D01*
X119676008Y-87342256D01*
X120250427Y-86968151D01*
X120334100Y-86912441D01*
X120691767Y-86672936D01*
X121050877Y-86430895D01*
X121413501Y-86184849D01*
X121781710Y-85933328D01*
X122157576Y-85674862D01*
X122543171Y-85407980D01*
X122940565Y-85131214D01*
X123351829Y-84843092D01*
X123779036Y-84542146D01*
X124224257Y-84226904D01*
X124689562Y-83895897D01*
X125177024Y-83547655D01*
X125688714Y-83180707D01*
X126226702Y-82793585D01*
X126793061Y-82384818D01*
X127389861Y-81952935D01*
X128019174Y-81496468D01*
X128683072Y-81013945D01*
X129383626Y-80503898D01*
X130087700Y-79990543D01*
X130695526Y-79545077D01*
X131262352Y-79125385D01*
X131790013Y-78729932D01*
X132280345Y-78357183D01*
X132735183Y-78005604D01*
X133156362Y-77673661D01*
X133545719Y-77359820D01*
X133905088Y-77062546D01*
X134236307Y-76780306D01*
X134541209Y-76511565D01*
X134821632Y-76254788D01*
X135079410Y-76008441D01*
X135316379Y-75770991D01*
X135534374Y-75540903D01*
X135735233Y-75316643D01*
X135871874Y-75155994D01*
X136079451Y-74902099D01*
X136257686Y-74673394D01*
X136413399Y-74459393D01*
X136553410Y-74249610D01*
X136684542Y-74033557D01*
X136813614Y-73800750D01*
X136947448Y-73540701D01*
X137025393Y-73382600D01*
X137104002Y-73224199D01*
X137166765Y-73106540D01*
X137218175Y-73023811D01*
X137262723Y-72970202D01*
X137304902Y-72939901D01*
X137349202Y-72927099D01*
X137378817Y-72925400D01*
X137426681Y-72928325D01*
X137462816Y-72941359D01*
X137489134Y-72970891D01*
X137507547Y-73023307D01*
X137519965Y-73104996D01*
X137528301Y-73222346D01*
X137534466Y-73381744D01*
X137536577Y-73452604D01*
X137536602Y-73845351D01*
X137511655Y-74212967D01*
X137459448Y-74570664D01*
X137377695Y-74933655D01*
X137264105Y-75317152D01*
X137249484Y-75361497D01*
X137201935Y-75493302D01*
X137140154Y-75648120D01*
X137068429Y-75816705D01*
X136991045Y-75989813D01*
X136912288Y-76158199D01*
X136836444Y-76312618D01*
X136767800Y-76443825D01*
X136710640Y-76542575D01*
X136683188Y-76583000D01*
X136650627Y-76628900D01*
X136597858Y-76706487D01*
X136532262Y-76804793D01*
X136463469Y-76909409D01*
X136359176Y-77064849D01*
X136253319Y-77212844D01*
X136141131Y-77358901D01*
X136017846Y-77508526D01*
X135878696Y-77667225D01*
X135718917Y-77840505D01*
X135533740Y-78033871D01*
X135318400Y-78252831D01*
X135183383Y-78388154D01*
X134935153Y-78633690D01*
X134690149Y-78871134D01*
X134445674Y-79102652D01*
X134199029Y-79330410D01*
X133947517Y-79556573D01*
X133688440Y-79783307D01*
X133419099Y-80012778D01*
X133136798Y-80247151D01*
X132838837Y-80488592D01*
X132522519Y-80739267D01*
X132185147Y-81001341D01*
X131824021Y-81276980D01*
X131436445Y-81568350D01*
X131019720Y-81877616D01*
X130571149Y-82206944D01*
X130088032Y-82558501D01*
X129567674Y-82934450D01*
X129109800Y-83263524D01*
X128862221Y-83441210D01*
X128615782Y-83618286D01*
X128375443Y-83791176D01*
X128146164Y-83956301D01*
X127932907Y-84110084D01*
X127740632Y-84248948D01*
X127574301Y-84369314D01*
X127438873Y-84467605D01*
X127339311Y-84540244D01*
X127331800Y-84545754D01*
X127193293Y-84646674D01*
X127024278Y-84768672D01*
X126835912Y-84903763D01*
X126639354Y-85043963D01*
X126445759Y-85181287D01*
X126303100Y-85281894D01*
X126134837Y-85400669D01*
X125935359Y-85542271D01*
X125714535Y-85699644D01*
X125482233Y-85865737D01*
X125248321Y-86033496D01*
X125022670Y-86195869D01*
X124868000Y-86307547D01*
X124297154Y-86719801D01*
X123764263Y-87103222D01*
X123266698Y-87459531D01*
X122801828Y-87790447D01*
X122367024Y-88097692D01*
X121959656Y-88382986D01*
X121577094Y-88648049D01*
X121216709Y-88894601D01*
X120875870Y-89124364D01*
X120551948Y-89339058D01*
X120242314Y-89540402D01*
X119944336Y-89730118D01*
X119655386Y-89909926D01*
X119372834Y-90081546D01*
X119094050Y-90246699D01*
X118816404Y-90407105D01*
X118537267Y-90564485D01*
X118254008Y-90720559D01*
X117963998Y-90877048D01*
X117664607Y-91035671D01*
X117545165Y-91098260D01*
X116978786Y-91371501D01*
X116418312Y-91595843D01*
X115860545Y-91772365D01*
X115302287Y-91902147D01*
X115022170Y-91949819D01*
X114825691Y-91973998D01*
X114600090Y-91993129D01*
X114358877Y-92006762D01*
X114115560Y-92014449D01*
X113883649Y-92015743D01*
X113676652Y-92010195D01*
X113526900Y-91999408D01*
X113099195Y-91935597D01*
X112644370Y-91830062D01*
X112163583Y-91683279D01*
X111657991Y-91495725D01*
X111128753Y-91267878D01*
X110577028Y-91000213D01*
X110003974Y-90693207D01*
X109410749Y-90347338D01*
X109202918Y-90219890D01*
X109019883Y-90104899D01*
X108821984Y-89977815D01*
X108605203Y-89835959D01*
X108365521Y-89676648D01*
X108098920Y-89497201D01*
X107801381Y-89294937D01*
X107468885Y-89067175D01*
X107265800Y-88927407D01*
X107085218Y-88803069D01*
X106908737Y-88681776D01*
X106743063Y-88568124D01*
X106594903Y-88466704D01*
X106470964Y-88382110D01*
X106377953Y-88318935D01*
X106338700Y-88292498D01*
X106261524Y-88239612D01*
X106146170Y-88158804D01*
X105995471Y-88052129D01*
X105812261Y-87921639D01*
X105599374Y-87769389D01*
X105359646Y-87597433D01*
X105095910Y-87407823D01*
X104811000Y-87202615D01*
X104507751Y-86983861D01*
X104188998Y-86753616D01*
X103857574Y-86513932D01*
X103516313Y-86266865D01*
X103168051Y-86014468D01*
X102815621Y-85758794D01*
X102461858Y-85501897D01*
X102109596Y-85245831D01*
X101761669Y-84992650D01*
X101420911Y-84744407D01*
X101090158Y-84503156D01*
X100772243Y-84270952D01*
X100470001Y-84049847D01*
X100186265Y-83841896D01*
X99923871Y-83649152D01*
X99685652Y-83473669D01*
X99544516Y-83369390D01*
X99052097Y-83003824D01*
X98567052Y-82641323D01*
X98091975Y-82283906D01*
X97629460Y-81933589D01*
X97182101Y-81592392D01*
X96752490Y-81262330D01*
X96343222Y-80945423D01*
X95956891Y-80643687D01*
X95596089Y-80359141D01*
X95263411Y-80093801D01*
X94961451Y-79849687D01*
X94692802Y-79628815D01*
X94460058Y-79433203D01*
X94265812Y-79264869D01*
X94248300Y-79249342D01*
X94066239Y-79084055D01*
X93867303Y-78897335D01*
X93658108Y-78695855D01*
X93445272Y-78486287D01*
X93235411Y-78275301D01*
X93035143Y-78069571D01*
X92851084Y-77875768D01*
X92689851Y-77700564D01*
X92558062Y-77550632D01*
X92527332Y-77514081D01*
X92156873Y-77039547D01*
X91836602Y-76568556D01*
X91566092Y-76100280D01*
X91344921Y-75633892D01*
X91172664Y-75168565D01*
X91048895Y-74703471D01*
X91025849Y-74589100D01*
X90996776Y-74416681D01*
X90970238Y-74224479D01*
X90946982Y-74021865D01*
X90927755Y-73818210D01*
X90913303Y-73622885D01*
X90904372Y-73445261D01*
X90901709Y-73294711D01*
X90906061Y-73180606D01*
X90910651Y-73142769D01*
X90932074Y-73051342D01*
X90963748Y-72958324D01*
X90999997Y-72876588D01*
X91035146Y-72819006D01*
X91062463Y-72798400D01*
X91101731Y-72815531D01*
G37*
X91101731Y-72815531D02*
X91151323Y-72868915D01*
X91213291Y-72961533D01*
X91289685Y-73096368D01*
X91359306Y-73230200D01*
X91586288Y-73646527D01*
X91844913Y-74060974D01*
X92137033Y-74475596D01*
X92464502Y-74892452D01*
X92829171Y-75313598D01*
X93232894Y-75741093D01*
X93677523Y-76176993D01*
X94164912Y-76623356D01*
X94696913Y-77082239D01*
X95200800Y-77495918D01*
X95487968Y-77725927D01*
X95776968Y-77955636D01*
X96069973Y-78186668D01*
X96369155Y-78420650D01*
X96676687Y-78659206D01*
X96994743Y-78903962D01*
X97325494Y-79156541D01*
X97671114Y-79418570D01*
X98033775Y-79691672D01*
X98415650Y-79977474D01*
X98818912Y-80277600D01*
X99245734Y-80593675D01*
X99698288Y-80927325D01*
X100178747Y-81280173D01*
X100689285Y-81653846D01*
X101232073Y-82049967D01*
X101809285Y-82470163D01*
X102423093Y-82916058D01*
X103075670Y-83389277D01*
X103239900Y-83508255D01*
X103505087Y-83700403D01*
X103775372Y-83896358D01*
X104045194Y-84092085D01*
X104308996Y-84283546D01*
X104561220Y-84466704D01*
X104796306Y-84637523D01*
X105008697Y-84791967D01*
X105192834Y-84925998D01*
X105343159Y-85035580D01*
X105383326Y-85064904D01*
X105858820Y-85409757D01*
X106330492Y-85747033D01*
X106794887Y-86074416D01*
X107248547Y-86389588D01*
X107688017Y-86690231D01*
X108109840Y-86974028D01*
X108510560Y-87238661D01*
X108886719Y-87481812D01*
X109234861Y-87701166D01*
X109551530Y-87894402D01*
X109833269Y-88059206D01*
X109932800Y-88115197D01*
X110418787Y-88372957D01*
X110905159Y-88607387D01*
X111386690Y-88816579D01*
X111858153Y-88998627D01*
X112314323Y-89151624D01*
X112749973Y-89273664D01*
X113159877Y-89362839D01*
X113485640Y-89411543D01*
X113661541Y-89425437D01*
X113873526Y-89432479D01*
X114108526Y-89433058D01*
X114353474Y-89427567D01*
X114595302Y-89416395D01*
X114820943Y-89399933D01*
X115017328Y-89378573D01*
X115120887Y-89362644D01*
X115525637Y-89279520D01*
X115933396Y-89173858D01*
X116347267Y-89044200D01*
X116770349Y-88889089D01*
X117205747Y-88707066D01*
X117656560Y-88496673D01*
X118125891Y-88256454D01*
X118616842Y-87984950D01*
X119132513Y-87680703D01*
X119676008Y-87342256D01*
X120250427Y-86968151D01*
X120334100Y-86912441D01*
X120691767Y-86672936D01*
X121050877Y-86430895D01*
X121413501Y-86184849D01*
X121781710Y-85933328D01*
X122157576Y-85674862D01*
X122543171Y-85407980D01*
X122940565Y-85131214D01*
X123351829Y-84843092D01*
X123779036Y-84542146D01*
X124224257Y-84226904D01*
X124689562Y-83895897D01*
X125177024Y-83547655D01*
X125688714Y-83180707D01*
X126226702Y-82793585D01*
X126793061Y-82384818D01*
X127389861Y-81952935D01*
X128019174Y-81496468D01*
X128683072Y-81013945D01*
X129383626Y-80503898D01*
X130087700Y-79990543D01*
X130695526Y-79545077D01*
X131262352Y-79125385D01*
X131790013Y-78729932D01*
X132280345Y-78357183D01*
X132735183Y-78005604D01*
X133156362Y-77673661D01*
X133545719Y-77359820D01*
X133905088Y-77062546D01*
X134236307Y-76780306D01*
X134541209Y-76511565D01*
X134821632Y-76254788D01*
X135079410Y-76008441D01*
X135316379Y-75770991D01*
X135534374Y-75540903D01*
X135735233Y-75316643D01*
X135871874Y-75155994D01*
X136079451Y-74902099D01*
X136257686Y-74673394D01*
X136413399Y-74459393D01*
X136553410Y-74249610D01*
X136684542Y-74033557D01*
X136813614Y-73800750D01*
X136947448Y-73540701D01*
X137025393Y-73382600D01*
X137104002Y-73224199D01*
X137166765Y-73106540D01*
X137218175Y-73023811D01*
X137262723Y-72970202D01*
X137304902Y-72939901D01*
X137349202Y-72927099D01*
X137378817Y-72925400D01*
X137426681Y-72928325D01*
X137462816Y-72941359D01*
X137489134Y-72970891D01*
X137507547Y-73023307D01*
X137519965Y-73104996D01*
X137528301Y-73222346D01*
X137534466Y-73381744D01*
X137536577Y-73452604D01*
X137536602Y-73845351D01*
X137511655Y-74212967D01*
X137459448Y-74570664D01*
X137377695Y-74933655D01*
X137264105Y-75317152D01*
X137249484Y-75361497D01*
X137201935Y-75493302D01*
X137140154Y-75648120D01*
X137068429Y-75816705D01*
X136991045Y-75989813D01*
X136912288Y-76158199D01*
X136836444Y-76312618D01*
X136767800Y-76443825D01*
X136710640Y-76542575D01*
X136683188Y-76583000D01*
X136650627Y-76628900D01*
X136597858Y-76706487D01*
X136532262Y-76804793D01*
X136463469Y-76909409D01*
X136359176Y-77064849D01*
X136253319Y-77212844D01*
X136141131Y-77358901D01*
X136017846Y-77508526D01*
X135878696Y-77667225D01*
X135718917Y-77840505D01*
X135533740Y-78033871D01*
X135318400Y-78252831D01*
X135183383Y-78388154D01*
X134935153Y-78633690D01*
X134690149Y-78871134D01*
X134445674Y-79102652D01*
X134199029Y-79330410D01*
X133947517Y-79556573D01*
X133688440Y-79783307D01*
X133419099Y-80012778D01*
X133136798Y-80247151D01*
X132838837Y-80488592D01*
X132522519Y-80739267D01*
X132185147Y-81001341D01*
X131824021Y-81276980D01*
X131436445Y-81568350D01*
X131019720Y-81877616D01*
X130571149Y-82206944D01*
X130088032Y-82558501D01*
X129567674Y-82934450D01*
X129109800Y-83263524D01*
X128862221Y-83441210D01*
X128615782Y-83618286D01*
X128375443Y-83791176D01*
X128146164Y-83956301D01*
X127932907Y-84110084D01*
X127740632Y-84248948D01*
X127574301Y-84369314D01*
X127438873Y-84467605D01*
X127339311Y-84540244D01*
X127331800Y-84545754D01*
X127193293Y-84646674D01*
X127024278Y-84768672D01*
X126835912Y-84903763D01*
X126639354Y-85043963D01*
X126445759Y-85181287D01*
X126303100Y-85281894D01*
X126134837Y-85400669D01*
X125935359Y-85542271D01*
X125714535Y-85699644D01*
X125482233Y-85865737D01*
X125248321Y-86033496D01*
X125022670Y-86195869D01*
X124868000Y-86307547D01*
X124297154Y-86719801D01*
X123764263Y-87103222D01*
X123266698Y-87459531D01*
X122801828Y-87790447D01*
X122367024Y-88097692D01*
X121959656Y-88382986D01*
X121577094Y-88648049D01*
X121216709Y-88894601D01*
X120875870Y-89124364D01*
X120551948Y-89339058D01*
X120242314Y-89540402D01*
X119944336Y-89730118D01*
X119655386Y-89909926D01*
X119372834Y-90081546D01*
X119094050Y-90246699D01*
X118816404Y-90407105D01*
X118537267Y-90564485D01*
X118254008Y-90720559D01*
X117963998Y-90877048D01*
X117664607Y-91035671D01*
X117545165Y-91098260D01*
X116978786Y-91371501D01*
X116418312Y-91595843D01*
X115860545Y-91772365D01*
X115302287Y-91902147D01*
X115022170Y-91949819D01*
X114825691Y-91973998D01*
X114600090Y-91993129D01*
X114358877Y-92006762D01*
X114115560Y-92014449D01*
X113883649Y-92015743D01*
X113676652Y-92010195D01*
X113526900Y-91999408D01*
X113099195Y-91935597D01*
X112644370Y-91830062D01*
X112163583Y-91683279D01*
X111657991Y-91495725D01*
X111128753Y-91267878D01*
X110577028Y-91000213D01*
X110003974Y-90693207D01*
X109410749Y-90347338D01*
X109202918Y-90219890D01*
X109019883Y-90104899D01*
X108821984Y-89977815D01*
X108605203Y-89835959D01*
X108365521Y-89676648D01*
X108098920Y-89497201D01*
X107801381Y-89294937D01*
X107468885Y-89067175D01*
X107265800Y-88927407D01*
X107085218Y-88803069D01*
X106908737Y-88681776D01*
X106743063Y-88568124D01*
X106594903Y-88466704D01*
X106470964Y-88382110D01*
X106377953Y-88318935D01*
X106338700Y-88292498D01*
X106261524Y-88239612D01*
X106146170Y-88158804D01*
X105995471Y-88052129D01*
X105812261Y-87921639D01*
X105599374Y-87769389D01*
X105359646Y-87597433D01*
X105095910Y-87407823D01*
X104811000Y-87202615D01*
X104507751Y-86983861D01*
X104188998Y-86753616D01*
X103857574Y-86513932D01*
X103516313Y-86266865D01*
X103168051Y-86014468D01*
X102815621Y-85758794D01*
X102461858Y-85501897D01*
X102109596Y-85245831D01*
X101761669Y-84992650D01*
X101420911Y-84744407D01*
X101090158Y-84503156D01*
X100772243Y-84270952D01*
X100470001Y-84049847D01*
X100186265Y-83841896D01*
X99923871Y-83649152D01*
X99685652Y-83473669D01*
X99544516Y-83369390D01*
X99052097Y-83003824D01*
X98567052Y-82641323D01*
X98091975Y-82283906D01*
X97629460Y-81933589D01*
X97182101Y-81592392D01*
X96752490Y-81262330D01*
X96343222Y-80945423D01*
X95956891Y-80643687D01*
X95596089Y-80359141D01*
X95263411Y-80093801D01*
X94961451Y-79849687D01*
X94692802Y-79628815D01*
X94460058Y-79433203D01*
X94265812Y-79264869D01*
X94248300Y-79249342D01*
X94066239Y-79084055D01*
X93867303Y-78897335D01*
X93658108Y-78695855D01*
X93445272Y-78486287D01*
X93235411Y-78275301D01*
X93035143Y-78069571D01*
X92851084Y-77875768D01*
X92689851Y-77700564D01*
X92558062Y-77550632D01*
X92527332Y-77514081D01*
X92156873Y-77039547D01*
X91836602Y-76568556D01*
X91566092Y-76100280D01*
X91344921Y-75633892D01*
X91172664Y-75168565D01*
X91048895Y-74703471D01*
X91025849Y-74589100D01*
X90996776Y-74416681D01*
X90970238Y-74224479D01*
X90946982Y-74021865D01*
X90927755Y-73818210D01*
X90913303Y-73622885D01*
X90904372Y-73445261D01*
X90901709Y-73294711D01*
X90906061Y-73180606D01*
X90910651Y-73142769D01*
X90932074Y-73051342D01*
X90963748Y-72958324D01*
X90999997Y-72876588D01*
X91035146Y-72819006D01*
X91062463Y-72798400D01*
X91101731Y-72815531D01*
M02*
